<svg width="198" height="45" viewBox="0 0 198 45" fill="none" xmlns="http://www.w3.org/2000/svg">
<g filter="url(#filter0_d_134_2)">
<path d="M4.94673 19V1.54545H11.8331C13.157 1.54545 14.2848 1.7983 15.2166 2.30398C16.1484 2.80398 16.8587 3.5 17.3473 4.39204C17.8416 5.27841 18.0888 6.30114 18.0888 7.46023C18.0888 8.61932 17.8388 9.64205 17.3388 10.5284C16.8388 11.4148 16.1143 12.1051 15.1655 12.5994C14.2223 13.0937 13.0803 13.3409 11.7393 13.3409H7.35014V10.3835H11.1428C11.853 10.3835 12.4382 10.2614 12.8984 10.017C13.3643 9.76705 13.7109 9.4233 13.9382 8.9858C14.1712 8.54261 14.2876 8.03409 14.2876 7.46023C14.2876 6.88068 14.1712 6.375 13.9382 5.94318C13.7109 5.50568 13.3643 5.16761 12.8984 4.92898C12.4325 4.68466 11.8416 4.5625 11.1257 4.5625H8.63707V19H4.94673ZM24.0483 11.4318V19H20.4176V1.54545H23.946V8.21875H24.0994C24.3949 7.44602 24.8722 6.84091 25.5312 6.40341C26.1903 5.96023 27.017 5.73864 28.0114 5.73864C28.9205 5.73864 29.7131 5.9375 30.3892 6.33523C31.071 6.72727 31.5994 7.29261 31.9744 8.03125C32.3551 8.7642 32.5426 9.64205 32.5369 10.6648V19H28.9062V11.3125C28.9119 10.5057 28.7074 9.87784 28.2926 9.42898C27.8835 8.98011 27.3097 8.75568 26.571 8.75568C26.0767 8.75568 25.6392 8.8608 25.2585 9.07102C24.8835 9.28125 24.5881 9.58807 24.3722 9.99148C24.1619 10.3892 24.054 10.8693 24.0483 11.4318ZM41.3089 19.2557C39.9851 19.2557 38.8402 18.9744 37.8743 18.4119C36.9141 17.8437 36.1726 17.054 35.6499 16.0426C35.1271 15.0256 34.8658 13.8466 34.8658 12.5057C34.8658 11.1534 35.1271 9.97159 35.6499 8.96023C36.1726 7.94318 36.9141 7.15341 37.8743 6.59091C38.8402 6.02273 39.9851 5.73864 41.3089 5.73864C42.6328 5.73864 43.7749 6.02273 44.7351 6.59091C45.701 7.15341 46.4453 7.94318 46.968 8.96023C47.4908 9.97159 47.7521 11.1534 47.7521 12.5057C47.7521 13.8466 47.4908 15.0256 46.968 16.0426C46.4453 17.054 45.701 17.8437 44.7351 18.4119C43.7749 18.9744 42.6328 19.2557 41.3089 19.2557ZM41.326 16.4432C41.9283 16.4432 42.4311 16.2727 42.8345 15.9318C43.2379 15.5852 43.5419 15.1136 43.7464 14.517C43.9567 13.9205 44.0618 13.2415 44.0618 12.4801C44.0618 11.7188 43.9567 11.0398 43.7464 10.4432C43.5419 9.84659 43.2379 9.375 42.8345 9.02841C42.4311 8.68182 41.9283 8.50852 41.326 8.50852C40.718 8.50852 40.2067 8.68182 39.7919 9.02841C39.3828 9.375 39.0732 9.84659 38.8629 10.4432C38.6584 11.0398 38.5561 11.7188 38.5561 12.4801C38.5561 13.2415 38.6584 13.9205 38.8629 14.517C39.0732 15.1136 39.3828 15.5852 39.7919 15.9318C40.2067 16.2727 40.718 16.4432 41.326 16.4432ZM56.0788 19.2557C54.7322 19.2557 53.5732 18.983 52.6016 18.4375C51.6357 17.8864 50.8913 17.108 50.3686 16.1023C49.8459 15.0909 49.5845 13.8949 49.5845 12.5142C49.5845 11.1676 49.8459 9.9858 50.3686 8.96875C50.8913 7.9517 51.6271 7.15909 52.576 6.59091C53.5305 6.02273 54.6499 5.73864 55.9339 5.73864C56.7976 5.73864 57.6016 5.87784 58.3459 6.15625C59.0959 6.42898 59.7493 6.84091 60.3061 7.39205C60.8686 7.94318 61.3061 8.63636 61.6186 9.47159C61.9311 10.3011 62.0874 11.2727 62.0874 12.3864V13.3835H51.0334V11.1335H58.6697C58.6697 10.6108 58.5561 10.1477 58.3288 9.74432C58.1016 9.34091 57.7862 9.02557 57.3828 8.7983C56.9851 8.56534 56.522 8.44886 55.9936 8.44886C55.4425 8.44886 54.9538 8.5767 54.5277 8.83239C54.1072 9.08239 53.7777 9.42045 53.5391 9.84659C53.3004 10.267 53.1783 10.7358 53.1726 11.2528V13.392C53.1726 14.0398 53.2919 14.5994 53.5305 15.071C53.7749 15.5426 54.1186 15.9062 54.5618 16.1619C55.005 16.4176 55.5305 16.5455 56.1385 16.5455C56.5419 16.5455 56.9112 16.4886 57.2464 16.375C57.5817 16.2614 57.8686 16.0909 58.1072 15.8636C58.3459 15.6364 58.5277 15.358 58.6527 15.0284L62.0107 15.25C61.8402 16.0568 61.4908 16.7614 60.9624 17.3636C60.4396 17.9602 59.7635 18.4261 58.9339 18.7614C58.1101 19.0909 57.1584 19.2557 56.0788 19.2557ZM68.0874 11.4318V19H64.4567V5.90909H67.9169V8.21875H68.0703C68.3601 7.45739 68.8459 6.85511 69.5277 6.41193C70.2095 5.96307 71.0362 5.73864 72.0078 5.73864C72.9169 5.73864 73.7095 5.9375 74.3857 6.33523C75.0618 6.73295 75.5874 7.30114 75.9624 8.03977C76.3374 8.77273 76.5249 9.64773 76.5249 10.6648V19H72.8942V11.3125C72.8999 10.5114 72.6953 9.88636 72.2805 9.4375C71.8658 8.98295 71.2947 8.75568 70.5675 8.75568C70.0788 8.75568 69.647 8.8608 69.272 9.07102C68.9027 9.28125 68.6129 9.58807 68.4027 9.99148C68.1982 10.3892 68.093 10.8693 68.0874 11.4318ZM79.3864 19V5.90909H83.017V19H79.3864ZM81.2102 4.22159C80.6705 4.22159 80.2074 4.04261 79.821 3.68466C79.4403 3.32102 79.25 2.88636 79.25 2.38068C79.25 1.88068 79.4403 1.4517 79.821 1.09375C80.2074 0.730113 80.6705 0.548295 81.2102 0.548295C81.75 0.548295 82.2102 0.730113 82.5909 1.09375C82.9773 1.4517 83.1705 1.88068 83.1705 2.38068C83.1705 2.88636 82.9773 3.32102 82.5909 3.68466C82.2102 4.04261 81.75 4.22159 81.2102 4.22159ZM88.9595 5.90909L91.3629 10.4858L93.826 5.90909H97.5504L93.7578 12.4545L97.6527 19H93.9453L91.3629 14.4744L88.8232 19H85.0732L88.9595 12.4545L85.2095 5.90909H88.9595ZM99.7749 19V1.54545H106.661C107.979 1.54545 109.104 1.78125 110.036 2.25284C110.974 2.71875 111.687 3.38068 112.175 4.23864C112.67 5.09091 112.917 6.09375 112.917 7.24716C112.917 8.40625 112.667 9.40341 112.167 10.2386C111.667 11.0682 110.942 11.7045 109.994 12.1477C109.05 12.5909 107.908 12.8125 106.567 12.8125H101.957V9.84659H105.971C106.675 9.84659 107.261 9.75 107.727 9.55682C108.192 9.36364 108.539 9.07386 108.766 8.6875C108.999 8.30114 109.116 7.82102 109.116 7.24716C109.116 6.66761 108.999 6.17898 108.766 5.78125C108.539 5.38352 108.19 5.08239 107.718 4.87784C107.252 4.66761 106.664 4.5625 105.954 4.5625H103.465V19H99.7749ZM109.201 11.0568L113.539 19H109.465L105.221 11.0568H109.201ZM121.212 19.2557C119.865 19.2557 118.706 18.983 117.734 18.4375C116.768 17.8864 116.024 17.108 115.501 16.1023C114.979 15.0909 114.717 13.8949 114.717 12.5142C114.717 11.1676 114.979 9.9858 115.501 8.96875C116.024 7.9517 116.76 7.15909 117.709 6.59091C118.663 6.02273 119.783 5.73864 121.067 5.73864C121.93 5.73864 122.734 5.87784 123.479 6.15625C124.229 6.42898 124.882 6.84091 125.439 7.39205C126.001 7.94318 126.439 8.63636 126.751 9.47159C127.064 10.3011 127.22 11.2727 127.22 12.3864V13.3835H116.166V11.1335H123.803C123.803 10.6108 123.689 10.1477 123.462 9.74432C123.234 9.34091 122.919 9.02557 122.516 8.7983C122.118 8.56534 121.655 8.44886 121.126 8.44886C120.575 8.44886 120.087 8.5767 119.661 8.83239C119.24 9.08239 118.911 9.42045 118.672 9.84659C118.433 10.267 118.311 10.7358 118.305 11.2528V13.392C118.305 14.0398 118.425 14.5994 118.663 15.071C118.908 15.5426 119.251 15.9062 119.695 16.1619C120.138 16.4176 120.663 16.5455 121.271 16.5455C121.675 16.5455 122.044 16.4886 122.379 16.375C122.714 16.2614 123.001 16.0909 123.24 15.8636C123.479 15.6364 123.661 15.358 123.786 15.0284L127.143 15.25C126.973 16.0568 126.624 16.7614 126.095 17.3636C125.572 17.9602 124.896 18.4261 124.067 18.7614C123.243 19.0909 122.291 19.2557 121.212 19.2557ZM134.413 19.2131C133.419 19.2131 132.518 18.9574 131.712 18.446C130.911 17.929 130.274 17.1705 129.803 16.1705C129.337 15.1648 129.104 13.9318 129.104 12.4716C129.104 10.9716 129.345 9.72443 129.828 8.73011C130.311 7.73011 130.953 6.98295 131.754 6.48864C132.561 5.98864 133.445 5.73864 134.405 5.73864C135.138 5.73864 135.749 5.86364 136.237 6.11364C136.732 6.35795 137.129 6.66477 137.43 7.03409C137.737 7.39773 137.97 7.75568 138.129 8.10795H138.24V1.54545H141.862V19H138.283V16.9034H138.129C137.959 17.267 137.717 17.6278 137.405 17.9858C137.098 18.3381 136.697 18.6307 136.203 18.8636C135.714 19.0966 135.118 19.2131 134.413 19.2131ZM135.564 16.3239C136.149 16.3239 136.643 16.1648 137.047 15.8466C137.456 15.5227 137.768 15.071 137.984 14.4915C138.206 13.9119 138.317 13.233 138.317 12.4545C138.317 11.6761 138.209 11 137.993 10.4261C137.777 9.85227 137.464 9.40909 137.055 9.09659C136.646 8.78409 136.149 8.62784 135.564 8.62784C134.967 8.62784 134.464 8.78977 134.055 9.11364C133.646 9.4375 133.337 9.88636 133.126 10.4602C132.916 11.0341 132.811 11.6989 132.811 12.4545C132.811 13.2159 132.916 13.8892 133.126 14.4744C133.342 15.054 133.652 15.5085 134.055 15.8381C134.464 16.1619 134.967 16.3239 135.564 16.3239ZM147.43 19L143.867 5.90909H147.54L149.569 14.7045H149.688L151.802 5.90909H155.407L157.555 14.6534H157.665L159.66 5.90909H163.325L159.771 19H155.927L153.677 10.767H153.515L151.265 19H147.43ZM170.848 19.2557C169.524 19.2557 168.379 18.9744 167.413 18.4119C166.453 17.8437 165.712 17.054 165.189 16.0426C164.666 15.0256 164.405 13.8466 164.405 12.5057C164.405 11.1534 164.666 9.97159 165.189 8.96023C165.712 7.94318 166.453 7.15341 167.413 6.59091C168.379 6.02273 169.524 5.73864 170.848 5.73864C172.172 5.73864 173.314 6.02273 174.274 6.59091C175.24 7.15341 175.984 7.94318 176.507 8.96023C177.03 9.97159 177.291 11.1534 177.291 12.5057C177.291 13.8466 177.03 15.0256 176.507 16.0426C175.984 17.054 175.24 17.8437 174.274 18.4119C173.314 18.9744 172.172 19.2557 170.848 19.2557ZM170.865 16.4432C171.467 16.4432 171.97 16.2727 172.374 15.9318C172.777 15.5852 173.081 15.1136 173.286 14.517C173.496 13.9205 173.601 13.2415 173.601 12.4801C173.601 11.7188 173.496 11.0398 173.286 10.4432C173.081 9.84659 172.777 9.375 172.374 9.02841C171.97 8.68182 171.467 8.50852 170.865 8.50852C170.257 8.50852 169.746 8.68182 169.331 9.02841C168.922 9.375 168.612 9.84659 168.402 10.4432C168.197 11.0398 168.095 11.7188 168.095 12.4801C168.095 13.2415 168.197 13.9205 168.402 14.517C168.612 15.1136 168.922 15.5852 169.331 15.9318C169.746 16.2727 170.257 16.4432 170.865 16.4432ZM183.283 1.54545V19H179.652V1.54545H183.283ZM193.231 5.90909V8.63636H185.151V5.90909H193.231ZM187.001 19V4.96307C187.001 4.0142 187.185 3.22727 187.555 2.60227C187.93 1.97727 188.441 1.50852 189.089 1.19602C189.737 0.883522 190.472 0.727272 191.296 0.727272C191.853 0.727272 192.362 0.769886 192.822 0.855114C193.288 0.940341 193.634 1.01705 193.862 1.08523L193.214 3.8125C193.072 3.76705 192.896 3.72443 192.685 3.68466C192.481 3.64489 192.271 3.625 192.055 3.625C191.521 3.625 191.148 3.75 190.938 4C190.728 4.24432 190.623 4.58807 190.623 5.03125V19H187.001ZM109.988 34H107.295V25.2727H110.108C110.954 25.2727 111.679 25.4474 112.281 25.7969C112.883 26.1435 113.345 26.642 113.666 27.2926C113.987 27.9403 114.147 28.7159 114.147 29.6193C114.147 30.5284 113.985 31.3111 113.662 31.9673C113.338 32.6207 112.866 33.1236 112.247 33.4759C111.627 33.8253 110.875 34 109.988 34ZM108.352 33.0625H109.92C110.642 33.0625 111.24 32.9233 111.714 32.6449C112.189 32.3665 112.542 31.9702 112.775 31.456C113.008 30.9418 113.125 30.3295 113.125 29.6193C113.125 28.9148 113.01 28.3082 112.779 27.7997C112.549 27.2884 112.206 26.8963 111.748 26.6236C111.291 26.348 110.721 26.2102 110.039 26.2102H108.352V33.0625ZM115.784 34V27.4545H116.789V34H115.784ZM116.295 26.3636C116.099 26.3636 115.93 26.2969 115.788 26.1634C115.649 26.0298 115.579 25.8693 115.579 25.6818C115.579 25.4943 115.649 25.3338 115.788 25.2003C115.93 25.0668 116.099 25 116.295 25C116.491 25 116.659 25.0668 116.798 25.2003C116.94 25.3338 117.011 25.4943 117.011 25.6818C117.011 25.8693 116.94 26.0298 116.798 26.1634C116.659 26.2969 116.491 26.3636 116.295 26.3636ZM121.273 36.5909C120.788 36.5909 120.37 36.5284 120.021 36.4034C119.671 36.2812 119.38 36.1193 119.147 35.9176C118.917 35.7188 118.734 35.5057 118.597 35.2784L119.398 34.7159C119.489 34.8352 119.604 34.9716 119.744 35.125C119.883 35.2812 120.073 35.4162 120.315 35.5298C120.559 35.6463 120.879 35.7045 121.273 35.7045C121.802 35.7045 122.238 35.5767 122.582 35.321C122.925 35.0653 123.097 34.6648 123.097 34.1193V32.7898H123.012C122.938 32.9091 122.833 33.0568 122.697 33.233C122.563 33.4062 122.37 33.5611 122.117 33.6974C121.867 33.831 121.529 33.8977 121.103 33.8977C120.575 33.8977 120.1 33.7727 119.68 33.5227C119.262 33.2727 118.931 32.9091 118.687 32.4318C118.445 31.9545 118.325 31.375 118.325 30.6932C118.325 30.0227 118.442 29.4389 118.678 28.9418C118.914 28.4418 119.242 28.0554 119.663 27.7827C120.083 27.5071 120.569 27.3693 121.12 27.3693C121.546 27.3693 121.884 27.4403 122.134 27.5824C122.387 27.7216 122.58 27.8807 122.714 28.0597C122.85 28.2358 122.955 28.3807 123.029 28.4943H123.131V27.4545H124.103V34.1875C124.103 34.75 123.975 35.2074 123.719 35.5597C123.467 35.9148 123.126 36.1747 122.697 36.3395C122.271 36.5071 121.796 36.5909 121.273 36.5909ZM121.239 32.9943C121.643 32.9943 121.984 32.902 122.262 32.7173C122.54 32.5327 122.752 32.267 122.897 31.9205C123.042 31.5739 123.114 31.1591 123.114 30.6761C123.114 30.2045 123.043 29.7884 122.901 29.4276C122.759 29.0668 122.549 28.7841 122.271 28.5795C121.992 28.375 121.648 28.2727 121.239 28.2727C120.813 28.2727 120.458 28.3807 120.174 28.5966C119.893 28.8125 119.681 29.1023 119.539 29.4659C119.4 29.8295 119.33 30.233 119.33 30.6761C119.33 31.1307 119.401 31.5327 119.543 31.8821C119.688 32.2287 119.901 32.5014 120.183 32.7003C120.467 32.8963 120.819 32.9943 121.239 32.9943ZM125.944 34V27.4545H126.95V34H125.944ZM126.455 26.3636C126.259 26.3636 126.09 26.2969 125.948 26.1634C125.809 26.0298 125.739 25.8693 125.739 25.6818C125.739 25.4943 125.809 25.3338 125.948 25.2003C126.09 25.0668 126.259 25 126.455 25C126.651 25 126.819 25.0668 126.958 25.2003C127.1 25.3338 127.171 25.4943 127.171 25.6818C127.171 25.8693 127.1 26.0298 126.958 26.1634C126.819 26.2969 126.651 26.3636 126.455 26.3636ZM131.638 27.4545V28.3068H128.246V27.4545H131.638ZM129.235 25.8864H130.24V32.125C130.24 32.4091 130.282 32.6222 130.364 32.7642C130.449 32.9034 130.557 32.9972 130.688 33.0455C130.821 33.0909 130.962 33.1136 131.11 33.1136C131.221 33.1136 131.311 33.108 131.382 33.0966C131.453 33.0824 131.51 33.071 131.553 33.0625L131.757 33.9659C131.689 33.9915 131.594 34.017 131.472 34.0426C131.35 34.071 131.195 34.0852 131.007 34.0852C130.723 34.0852 130.445 34.0241 130.172 33.902C129.902 33.7798 129.678 33.5938 129.499 33.3438C129.323 33.0938 129.235 32.7784 129.235 32.3977V25.8864ZM135.077 34.1534C134.662 34.1534 134.286 34.0753 133.948 33.919C133.61 33.7599 133.341 33.5312 133.142 33.233C132.944 32.9318 132.844 32.5682 132.844 32.142C132.844 31.767 132.918 31.4631 133.066 31.2301C133.213 30.9943 133.411 30.8097 133.658 30.6761C133.905 30.5426 134.178 30.4432 134.476 30.3778C134.777 30.3097 135.08 30.2557 135.384 30.2159C135.782 30.1648 136.104 30.1264 136.351 30.1009C136.601 30.0724 136.783 30.0256 136.897 29.9602C137.013 29.8949 137.071 29.7812 137.071 29.6193V29.5852C137.071 29.1648 136.956 28.8381 136.726 28.6051C136.499 28.3722 136.154 28.2557 135.691 28.2557C135.211 28.2557 134.834 28.3608 134.561 28.571C134.289 28.7812 134.097 29.0057 133.986 29.2443L133.032 28.9034C133.202 28.5057 133.429 28.196 133.713 27.9744C134 27.75 134.313 27.5937 134.651 27.5057C134.992 27.4148 135.327 27.3693 135.657 27.3693C135.867 27.3693 136.108 27.3949 136.381 27.446C136.657 27.4943 136.922 27.5952 137.178 27.7486C137.436 27.902 137.651 28.1335 137.821 28.4432C137.992 28.7528 138.077 29.1676 138.077 29.6875V34H137.071V33.1136H137.02C136.952 33.2557 136.838 33.4077 136.679 33.5696C136.52 33.7315 136.309 33.8693 136.044 33.983C135.78 34.0966 135.458 34.1534 135.077 34.1534ZM135.23 33.25C135.628 33.25 135.963 33.1719 136.236 33.0156C136.512 32.8594 136.719 32.6577 136.858 32.4105C137 32.1634 137.071 31.9034 137.071 31.6307V30.7102C137.029 30.7614 136.935 30.8082 136.79 30.8509C136.648 30.8906 136.483 30.9261 136.296 30.9574C136.111 30.9858 135.931 31.0114 135.755 31.0341C135.581 31.054 135.441 31.071 135.333 31.0852C135.071 31.1193 134.827 31.1747 134.6 31.2514C134.375 31.3253 134.194 31.4375 134.054 31.5881C133.918 31.7358 133.85 31.9375 133.85 32.1932C133.85 32.5426 133.979 32.8068 134.238 32.9858C134.499 33.1619 134.83 33.25 135.23 33.25ZM140.918 25.2727V34H139.913V25.2727H140.918ZM151.044 27.4545C150.993 27.0227 150.786 26.6875 150.422 26.4489C150.059 26.2102 149.613 26.0909 149.084 26.0909C148.698 26.0909 148.36 26.1534 148.07 26.2784C147.783 26.4034 147.559 26.5753 147.397 26.794C147.238 27.0128 147.158 27.2614 147.158 27.5398C147.158 27.7727 147.213 27.973 147.324 28.1406C147.438 28.3054 147.583 28.4432 147.759 28.554C147.935 28.6619 148.12 28.7514 148.313 28.8224C148.506 28.8906 148.684 28.946 148.846 28.9886L149.732 29.2273C149.959 29.2869 150.212 29.3693 150.49 29.4744C150.772 29.5795 151.04 29.723 151.296 29.9048C151.554 30.0838 151.767 30.3139 151.935 30.5952C152.103 30.8764 152.186 31.2216 152.186 31.6307C152.186 32.1023 152.063 32.5284 151.816 32.9091C151.571 33.2898 151.213 33.5923 150.742 33.8168C150.273 34.0412 149.703 34.1534 149.033 34.1534C148.408 34.1534 147.867 34.0526 147.409 33.8509C146.955 33.6491 146.597 33.3679 146.336 33.0071C146.077 32.6463 145.931 32.2273 145.897 31.75H146.988C147.016 32.0795 147.127 32.3523 147.32 32.5682C147.516 32.7812 147.763 32.9403 148.061 33.0455C148.363 33.1477 148.686 33.1989 149.033 33.1989C149.436 33.1989 149.799 33.1335 150.12 33.0028C150.441 32.8693 150.695 32.6847 150.882 32.4489C151.07 32.2102 151.164 31.9318 151.164 31.6136C151.164 31.3239 151.083 31.0881 150.921 30.9062C150.759 30.7244 150.546 30.5767 150.282 30.4631C150.017 30.3494 149.732 30.25 149.425 30.1648L148.351 29.858C147.669 29.6619 147.13 29.3821 146.732 29.0185C146.334 28.6548 146.135 28.179 146.135 27.5909C146.135 27.1023 146.267 26.6761 146.532 26.3125C146.799 25.946 147.157 25.6619 147.605 25.4602C148.057 25.2557 148.561 25.1534 149.118 25.1534C149.681 25.1534 150.181 25.2543 150.618 25.456C151.056 25.6548 151.402 25.9276 151.658 26.2741C151.917 26.6207 152.053 27.0142 152.067 27.4545H151.044ZM156.532 34.1364C155.901 34.1364 155.357 33.9972 154.9 33.7188C154.445 33.4375 154.094 33.0455 153.847 32.5426C153.603 32.0369 153.481 31.4489 153.481 30.7784C153.481 30.108 153.603 29.517 153.847 29.0057C154.094 28.4915 154.438 28.0909 154.879 27.804C155.322 27.5142 155.839 27.3693 156.43 27.3693C156.771 27.3693 157.107 27.4261 157.44 27.5398C157.772 27.6534 158.075 27.8381 158.347 28.0938C158.62 28.3466 158.837 28.6818 158.999 29.0994C159.161 29.517 159.242 30.0312 159.242 30.642V31.0682H154.197V30.1989H158.219C158.219 29.8295 158.146 29.5 157.998 29.2102C157.853 28.9205 157.646 28.6918 157.376 28.5241C157.109 28.3565 156.793 28.2727 156.43 28.2727C156.029 28.2727 155.683 28.3722 155.39 28.571C155.1 28.767 154.877 29.0227 154.721 29.3381C154.565 29.6534 154.487 29.9915 154.487 30.3523V30.9318C154.487 31.4261 154.572 31.8452 154.742 32.1889C154.915 32.5298 155.156 32.7898 155.462 32.9688C155.769 33.1449 156.126 33.233 156.532 33.233C156.796 33.233 157.035 33.196 157.248 33.1222C157.464 33.0455 157.65 32.9318 157.806 32.7812C157.962 32.6278 158.083 32.4375 158.168 32.2102L159.14 32.483C159.038 32.8125 158.866 33.1023 158.624 33.3523C158.383 33.5994 158.085 33.7926 157.729 33.9318C157.374 34.0682 156.975 34.1364 156.532 34.1364ZM160.772 34V27.4545H161.744V28.4432H161.812C161.931 28.1193 162.147 27.8565 162.46 27.6548C162.772 27.4531 163.124 27.3523 163.516 27.3523C163.59 27.3523 163.683 27.3537 163.793 27.3565C163.904 27.3594 163.988 27.3636 164.045 27.3693V28.392C164.011 28.3835 163.933 28.3707 163.81 28.3537C163.691 28.3338 163.565 28.3239 163.431 28.3239C163.113 28.3239 162.829 28.3906 162.579 28.5241C162.332 28.6548 162.136 28.8366 161.991 29.0696C161.849 29.2997 161.778 29.5625 161.778 29.858V34H160.772ZM170.788 27.4545L168.368 34H167.345L164.925 27.4545H166.016L167.822 32.6705H167.891L169.697 27.4545H170.788ZM172.116 34V27.4545H173.121V34H172.116ZM172.627 26.3636C172.431 26.3636 172.262 26.2969 172.12 26.1634C171.981 26.0298 171.911 25.8693 171.911 25.6818C171.911 25.4943 171.981 25.3338 172.12 25.2003C172.262 25.0668 172.431 25 172.627 25C172.823 25 172.991 25.0668 173.13 25.2003C173.272 25.3338 173.343 25.4943 173.343 25.6818C173.343 25.8693 173.272 26.0298 173.13 26.1634C172.991 26.2969 172.823 26.3636 172.627 26.3636ZM177.623 34.1364C177.009 34.1364 176.48 33.9915 176.037 33.7017C175.594 33.4119 175.253 33.0128 175.015 32.5043C174.776 31.9957 174.657 31.4148 174.657 30.7614C174.657 30.0966 174.779 29.5099 175.023 29.0014C175.27 28.4901 175.614 28.0909 176.054 27.804C176.498 27.5142 177.015 27.3693 177.605 27.3693C178.066 27.3693 178.48 27.4545 178.85 27.625C179.219 27.7955 179.522 28.0341 179.757 28.3409C179.993 28.6477 180.14 29.0057 180.196 29.4148H179.191C179.114 29.1165 178.944 28.8523 178.679 28.6222C178.418 28.3892 178.066 28.2727 177.623 28.2727C177.23 28.2727 176.887 28.375 176.591 28.5795C176.299 28.7812 176.07 29.0668 175.905 29.4361C175.743 29.8026 175.662 30.233 175.662 30.7273C175.662 31.233 175.742 31.6733 175.901 32.0483C176.063 32.4233 176.29 32.7145 176.583 32.9219C176.878 33.1293 177.225 33.233 177.623 33.233C177.884 33.233 178.121 33.1875 178.334 33.0966C178.547 33.0057 178.728 32.875 178.875 32.7045C179.023 32.5341 179.128 32.3295 179.191 32.0909H180.196C180.14 32.4773 179.999 32.8253 179.775 33.1349C179.553 33.4418 179.259 33.6861 178.892 33.8679C178.529 34.0469 178.105 34.1364 177.623 34.1364ZM184.411 34.1364C183.78 34.1364 183.236 33.9972 182.779 33.7188C182.324 33.4375 181.973 33.0455 181.726 32.5426C181.482 32.0369 181.36 31.4489 181.36 30.7784C181.36 30.108 181.482 29.517 181.726 29.0057C181.973 28.4915 182.317 28.0909 182.757 27.804C183.201 27.5142 183.718 27.3693 184.309 27.3693C184.65 27.3693 184.986 27.4261 185.319 27.5398C185.651 27.6534 185.953 27.8381 186.226 28.0938C186.499 28.3466 186.716 28.6818 186.878 29.0994C187.04 29.517 187.121 30.0312 187.121 30.642V31.0682H182.076V30.1989H186.098C186.098 29.8295 186.025 29.5 185.877 29.2102C185.732 28.9205 185.525 28.6918 185.255 28.5241C184.988 28.3565 184.672 28.2727 184.309 28.2727C183.908 28.2727 183.561 28.3722 183.269 28.571C182.979 28.767 182.756 29.0227 182.6 29.3381C182.444 29.6534 182.365 29.9915 182.365 30.3523V30.9318C182.365 31.4261 182.451 31.8452 182.621 32.1889C182.794 32.5298 183.034 32.7898 183.341 32.9688C183.648 33.1449 184.005 33.233 184.411 33.233C184.675 33.233 184.914 33.196 185.127 33.1222C185.343 33.0455 185.529 32.9318 185.685 32.7812C185.841 32.6278 185.962 32.4375 186.047 32.2102L187.019 32.483C186.917 32.8125 186.745 33.1023 186.503 33.3523C186.262 33.5994 185.963 33.7926 185.608 33.9318C185.253 34.0682 184.854 34.1364 184.411 34.1364ZM193.287 28.9205L192.384 29.1761C192.327 29.0256 192.243 28.8793 192.132 28.7372C192.025 28.5923 191.877 28.473 191.689 28.3793C191.502 28.2855 191.262 28.2386 190.969 28.2386C190.569 28.2386 190.235 28.331 189.968 28.5156C189.703 28.6974 189.571 28.929 189.571 29.2102C189.571 29.4602 189.662 29.6577 189.844 29.8026C190.026 29.9474 190.31 30.0682 190.696 30.1648L191.668 30.4034C192.253 30.5455 192.689 30.7628 192.976 31.0554C193.263 31.3452 193.407 31.7187 193.407 32.1761C193.407 32.5511 193.299 32.8864 193.083 33.1818C192.87 33.4773 192.571 33.7102 192.188 33.8807C191.804 34.0511 191.358 34.1364 190.85 34.1364C190.182 34.1364 189.63 33.9915 189.192 33.7017C188.755 33.4119 188.478 32.9886 188.361 32.4318L189.316 32.1932C189.407 32.5455 189.578 32.8097 189.831 32.9858C190.087 33.1619 190.421 33.25 190.833 33.25C191.301 33.25 191.674 33.1506 191.949 32.9517C192.228 32.75 192.367 32.5085 192.367 32.2273C192.367 32 192.287 31.8097 192.128 31.6562C191.969 31.5 191.725 31.3835 191.395 31.3068L190.304 31.0511C189.705 30.9091 189.265 30.6889 188.983 30.3906C188.705 30.0895 188.566 29.7131 188.566 29.2614C188.566 28.892 188.669 28.5653 188.877 28.2812C189.087 27.9972 189.373 27.7741 189.733 27.6122C190.097 27.4503 190.509 27.3693 190.969 27.3693C191.617 27.3693 192.125 27.5114 192.495 27.7955C192.867 28.0795 193.131 28.4545 193.287 28.9205Z" fill="url(#paint0_linear_134_2)"/>
</g>
<defs>
<filter id="filter0_d_134_2" x="0.946732" y="0.548294" width="196.915" height="44.0426" filterUnits="userSpaceOnUse" color-interpolation-filters="sRGB">
<feFlood flood-opacity="0" result="BackgroundImageFix"/>
<feColorMatrix in="SourceAlpha" type="matrix" values="0 0 0 0 0 0 0 0 0 0 0 0 0 0 0 0 0 0 127 0" result="hardAlpha"/>
<feOffset dy="4"/>
<feGaussianBlur stdDeviation="2"/>
<feComposite in2="hardAlpha" operator="out"/>
<feColorMatrix type="matrix" values="0 0 0 0 0 0 0 0 0 0 0 0 0 0 0 0 0 0 0.25 0"/>
<feBlend mode="normal" in2="BackgroundImageFix" result="effect1_dropShadow_134_2"/>
<feBlend mode="normal" in="SourceGraphic" in2="effect1_dropShadow_134_2" result="shape"/>
</filter>
<linearGradient id="paint0_linear_134_2" x1="5.5" y1="-2" x2="194" y2="36" gradientUnits="userSpaceOnUse">
<stop stop-color="#0054D6"/>
<stop offset="1" stop-color="#BA1A1A"/>
</linearGradient>
</defs>
</svg>
