<svg width="149" height="25" viewBox="0 0 149 25" fill="none" xmlns="http://www.w3.org/2000/svg">
<path d="M5.92969 1H7.62109V6.19531C7.62109 6.77865 7.48177 7.28906 7.20313 7.72656C6.92708 8.16406 6.54036 8.50521 6.04297 8.75C5.54557 8.99219 4.96615 9.11328 4.30469 9.11328C3.64063 9.11328 3.0599 8.99219 2.5625 8.75C2.0651 8.50521 1.67839 8.16406 1.40234 7.72656C1.1263 7.28906 0.988281 6.77865 0.988281 6.19531V1H2.67969V6.05078C2.67969 6.35547 2.74609 6.6263 2.87891 6.86328C3.01432 7.10026 3.20443 7.28646 3.44922 7.42188C3.69401 7.55729 3.97917 7.625 4.30469 7.625C4.63281 7.625 4.91797 7.55729 5.16016 7.42188C5.40495 7.28646 5.59375 7.10026 5.72656 6.86328C5.86198 6.6263 5.92969 6.35547 5.92969 6.05078V1ZM10.6455 5.53125V9H8.98145V3H10.5674V4.05859H10.6377C10.7705 3.70964 10.9932 3.43359 11.3057 3.23047C11.6182 3.02474 11.9971 2.92188 12.4424 2.92188C12.859 2.92188 13.2223 3.01302 13.5322 3.19531C13.8421 3.3776 14.083 3.63802 14.2549 3.97656C14.4268 4.3125 14.5127 4.71354 14.5127 5.17969V9H12.8486V5.47656C12.8512 5.10937 12.7575 4.82292 12.5674 4.61719C12.3773 4.40885 12.1156 4.30469 11.7822 4.30469C11.5583 4.30469 11.3604 4.35286 11.1885 4.44922C11.0192 4.54557 10.8864 4.6862 10.79 4.87109C10.6963 5.05339 10.6481 5.27344 10.6455 5.53125ZM17.4883 1V9H15.8242V1H17.4883ZM21.5557 9.11719C20.9385 9.11719 20.4072 8.99219 19.9619 8.74219C19.5192 8.48958 19.1781 8.13281 18.9385 7.67187C18.6989 7.20833 18.5791 6.66016 18.5791 6.02734C18.5791 5.41016 18.6989 4.86849 18.9385 4.40234C19.1781 3.9362 19.5153 3.57292 19.9502 3.3125C20.3877 3.05208 20.9007 2.92188 21.4893 2.92188C21.8851 2.92188 22.2536 2.98568 22.5947 3.11328C22.9385 3.23828 23.238 3.42708 23.4932 3.67969C23.751 3.93229 23.9515 4.25 24.0947 4.63281C24.238 5.01302 24.3096 5.45833 24.3096 5.96875V6.42578H19.2432V5.39453H22.7432C22.7432 5.15495 22.6911 4.94271 22.5869 4.75781C22.4827 4.57292 22.3382 4.42839 22.1533 4.32422C21.971 4.21745 21.7588 4.16406 21.5166 4.16406C21.264 4.16406 21.04 4.22266 20.8447 4.33984C20.652 4.45443 20.501 4.60937 20.3916 4.80469C20.2822 4.9974 20.2262 5.21224 20.2236 5.44922V6.42969C20.2236 6.72656 20.2783 6.98307 20.3877 7.19922C20.4997 7.41536 20.6572 7.58203 20.8604 7.69922C21.0635 7.81641 21.3044 7.875 21.583 7.875C21.7679 7.875 21.9372 7.84896 22.0908 7.79688C22.2445 7.74479 22.376 7.66667 22.4854 7.5625C22.5947 7.45833 22.6781 7.33073 22.7354 7.17969L24.2744 7.28125C24.1963 7.65104 24.0361 7.97396 23.7939 8.25C23.5544 8.52344 23.2445 8.73698 22.8643 8.89063C22.4867 9.04167 22.0505 9.11719 21.5557 9.11719ZM27.1064 9.11328C26.7236 9.11328 26.3825 9.04688 26.083 8.91406C25.7835 8.77865 25.5465 8.57943 25.3721 8.31641C25.2002 8.05078 25.1143 7.72005 25.1143 7.32422C25.1143 6.99089 25.1755 6.71094 25.2979 6.48437C25.4202 6.25781 25.5869 6.07552 25.7979 5.9375C26.0088 5.79948 26.2484 5.69531 26.5166 5.625C26.7874 5.55469 27.0713 5.50521 27.3682 5.47656C27.7171 5.4401 27.9984 5.40625 28.2119 5.375C28.4255 5.34115 28.5804 5.29167 28.6768 5.22656C28.7731 5.16146 28.8213 5.0651 28.8213 4.9375V4.91406C28.8213 4.66667 28.7432 4.47526 28.5869 4.33984C28.4333 4.20443 28.2145 4.13672 27.9307 4.13672C27.6312 4.13672 27.3929 4.20312 27.2158 4.33594C27.0387 4.46615 26.9215 4.63021 26.8643 4.82812L25.3252 4.70312C25.4033 4.33854 25.557 4.02344 25.7861 3.75781C26.0153 3.48958 26.3109 3.28385 26.6729 3.14062C27.0374 2.99479 27.4593 2.92188 27.9385 2.92188C28.2718 2.92188 28.5908 2.96094 28.8955 3.03906C29.2028 3.11719 29.4749 3.23828 29.7119 3.40234C29.9515 3.56641 30.1403 3.77734 30.2783 4.03516C30.4163 4.29036 30.4854 4.59635 30.4854 4.95312V9H28.9072V8.16797H28.8604C28.764 8.35547 28.6351 8.52083 28.4736 8.66406C28.3122 8.80469 28.1182 8.91536 27.8916 8.99609C27.665 9.07422 27.4033 9.11328 27.1064 9.11328ZM27.583 7.96484C27.8278 7.96484 28.0439 7.91667 28.2314 7.82031C28.4189 7.72135 28.5661 7.58854 28.6729 7.42188C28.7796 7.25521 28.833 7.06641 28.833 6.85547V6.21875C28.7809 6.2526 28.7093 6.28385 28.6182 6.3125C28.5296 6.33854 28.4294 6.36328 28.3174 6.38672C28.2054 6.40755 28.0934 6.42708 27.9814 6.44531C27.8695 6.46094 27.7679 6.47526 27.6768 6.48828C27.4814 6.51693 27.3109 6.5625 27.165 6.625C27.0192 6.6875 26.9059 6.77214 26.8252 6.87891C26.7445 6.98307 26.7041 7.11328 26.7041 7.26953C26.7041 7.49609 26.7861 7.66927 26.9502 7.78906C27.1169 7.90625 27.3278 7.96484 27.583 7.96484ZM36.7686 4.71094L35.2451 4.80469C35.2191 4.67448 35.1631 4.55729 35.0771 4.45312C34.9912 4.34635 34.8779 4.26172 34.7373 4.19922C34.5993 4.13411 34.4339 4.10156 34.2412 4.10156C33.9834 4.10156 33.766 4.15625 33.5889 4.26562C33.4118 4.3724 33.3232 4.51562 33.3232 4.69531C33.3232 4.83854 33.3805 4.95964 33.4951 5.05859C33.6097 5.15755 33.8063 5.23698 34.085 5.29687L35.1709 5.51562C35.7542 5.63542 36.1891 5.82812 36.4756 6.09375C36.762 6.35937 36.9053 6.70833 36.9053 7.14062C36.9053 7.53385 36.7894 7.87891 36.5576 8.17578C36.3285 8.47266 36.0133 8.70443 35.6123 8.87109C35.2139 9.03516 34.7542 9.11719 34.2334 9.11719C33.4391 9.11719 32.8063 8.95182 32.335 8.62109C31.8662 8.28776 31.5915 7.83464 31.5107 7.26172L33.1475 7.17578C33.1969 7.41797 33.3167 7.60286 33.5068 7.73047C33.6969 7.85547 33.9404 7.91797 34.2373 7.91797C34.529 7.91797 34.7633 7.86198 34.9404 7.75C35.1201 7.63542 35.2113 7.48828 35.2139 7.30859C35.2113 7.15755 35.1475 7.03385 35.0225 6.9375C34.8975 6.83854 34.7048 6.76302 34.4443 6.71094L33.4053 6.50391C32.8193 6.38672 32.3831 6.18359 32.0967 5.89453C31.8128 5.60547 31.6709 5.23698 31.6709 4.78906C31.6709 4.40365 31.7751 4.07161 31.9834 3.79297C32.1943 3.51432 32.4899 3.29948 32.8701 3.14844C33.2529 2.9974 33.7008 2.92188 34.2139 2.92188C34.9717 2.92188 35.568 3.08203 36.0029 3.40234C36.4404 3.72266 36.6956 4.15885 36.7686 4.71094ZM39.6172 5.53125V9H37.9531V1H39.5703V4.05859H39.6406C39.776 3.70443 39.9948 3.42708 40.2969 3.22656C40.599 3.02344 40.9779 2.92188 41.4336 2.92188C41.8503 2.92188 42.2135 3.01302 42.5234 3.19531C42.8359 3.375 43.0781 3.63411 43.25 3.97266C43.4245 4.30859 43.5104 4.71094 43.5078 5.17969V9H41.8438V5.47656C41.8464 5.10677 41.7526 4.81901 41.5625 4.61328C41.375 4.40755 41.112 4.30469 40.7734 4.30469C40.5469 4.30469 40.3464 4.35286 40.1719 4.44922C40 4.54557 39.8646 4.6862 39.7656 4.87109C39.6693 5.05339 39.6198 5.27344 39.6172 5.53125ZM44.8174 9V3H46.4814V9H44.8174ZM45.6533 2.22656C45.4059 2.22656 45.1937 2.14453 45.0166 1.98047C44.8421 1.8138 44.7549 1.61458 44.7549 1.38281C44.7549 1.15365 44.8421 0.957031 45.0166 0.792969C45.1937 0.626302 45.4059 0.542968 45.6533 0.542968C45.9007 0.542968 46.1117 0.626302 46.2861 0.792969C46.4632 0.957031 46.5518 1.15365 46.5518 1.38281C46.5518 1.61458 46.4632 1.8138 46.2861 1.98047C46.1117 2.14453 45.9007 2.22656 45.6533 2.22656ZM49.4785 5.53125V9H47.8145V3H49.4004V4.05859H49.4707C49.6035 3.70964 49.8262 3.43359 50.1387 3.23047C50.4512 3.02474 50.8301 2.92188 51.2754 2.92188C51.6921 2.92188 52.0553 3.01302 52.3652 3.19531C52.6751 3.3776 52.916 3.63802 53.0879 3.97656C53.2598 4.3125 53.3457 4.71354 53.3457 5.17969V9H51.6816V5.47656C51.6842 5.10937 51.5905 4.82292 51.4004 4.61719C51.2103 4.40885 50.9486 4.30469 50.6152 4.30469C50.3913 4.30469 50.1934 4.35286 50.0215 4.44922C49.8522 4.54557 49.7194 4.6862 49.623 4.87109C49.5293 5.05339 49.4811 5.27344 49.4785 5.53125ZM57.3604 11.375C56.8213 11.375 56.359 11.3008 55.9736 11.1523C55.5908 11.0065 55.2861 10.8073 55.0596 10.5547C54.833 10.3021 54.6859 10.0182 54.6182 9.70312L56.1572 9.49609C56.2041 9.61589 56.2783 9.72786 56.3799 9.83203C56.4814 9.9362 56.6156 10.0195 56.7822 10.082C56.9515 10.1471 57.1572 10.1797 57.3994 10.1797C57.7614 10.1797 58.0596 10.0911 58.2939 9.91406C58.5309 9.73958 58.6494 9.44661 58.6494 9.03516V7.9375H58.5791C58.5062 8.10417 58.3968 8.26172 58.251 8.41016C58.1051 8.55859 57.9176 8.67969 57.6885 8.77344C57.4593 8.86719 57.1859 8.91406 56.8682 8.91406C56.4176 8.91406 56.0075 8.8099 55.6377 8.60156C55.2705 8.39062 54.9775 8.06901 54.7588 7.63672C54.5426 7.20182 54.4346 6.65234 54.4346 5.98828C54.4346 5.30859 54.5452 4.74089 54.7666 4.28516C54.988 3.82943 55.2822 3.48828 55.6494 3.26172C56.0192 3.03516 56.4242 2.92188 56.8643 2.92188C57.2002 2.92188 57.4814 2.97917 57.708 3.09375C57.9346 3.20573 58.1169 3.34635 58.2549 3.51562C58.3955 3.68229 58.5036 3.84635 58.5791 4.00781H58.6416V3H60.2939V9.05859C60.2939 9.56901 60.1689 9.99609 59.9189 10.3398C59.6689 10.6836 59.3226 10.9414 58.8799 11.1133C58.4398 11.2878 57.9333 11.375 57.3604 11.375ZM57.3955 7.66406C57.6637 7.66406 57.8903 7.59766 58.0752 7.46484C58.2627 7.32943 58.4059 7.13672 58.5049 6.88672C58.6064 6.63411 58.6572 6.33203 58.6572 5.98047C58.6572 5.62891 58.6077 5.32422 58.5088 5.06641C58.4098 4.80599 58.2666 4.60417 58.0791 4.46094C57.8916 4.31771 57.6637 4.24609 57.3955 4.24609C57.1221 4.24609 56.8916 4.32031 56.7041 4.46875C56.5166 4.61458 56.3747 4.81771 56.2783 5.07812C56.182 5.33854 56.1338 5.63932 56.1338 5.98047C56.1338 6.32682 56.182 6.6263 56.2783 6.87891C56.3773 7.12891 56.5192 7.32292 56.7041 7.46094C56.8916 7.59635 57.1221 7.66406 57.3955 7.66406ZM67.0313 9H64.1953V1H67.0547C67.8594 1 68.5521 1.16016 69.1328 1.48047C69.7135 1.79818 70.1602 2.25521 70.4727 2.85156C70.7878 3.44792 70.9453 4.16146 70.9453 4.99219C70.9453 5.82552 70.7878 6.54167 70.4727 7.14062C70.1602 7.73958 69.7109 8.19922 69.125 8.51953C68.5417 8.83984 67.8438 9 67.0313 9ZM65.8867 7.55078H66.9609C67.4609 7.55078 67.8815 7.46224 68.2227 7.28516C68.5664 7.10547 68.8242 6.82812 68.9961 6.45312C69.1706 6.07552 69.2578 5.58854 69.2578 4.99219C69.2578 4.40104 69.1706 3.91797 68.9961 3.54297C68.8242 3.16797 68.5677 2.89193 68.2266 2.71484C67.8854 2.53776 67.4648 2.44922 66.9648 2.44922H65.8867V7.55078ZM72.167 9V3H73.8311V9H72.167ZM73.0029 2.22656C72.7555 2.22656 72.5433 2.14453 72.3662 1.98047C72.1917 1.8138 72.1045 1.61458 72.1045 1.38281C72.1045 1.15365 72.1917 0.957031 72.3662 0.792969C72.5433 0.626302 72.7555 0.542968 73.0029 0.542968C73.2503 0.542968 73.4613 0.626302 73.6357 0.792969C73.8128 0.957031 73.9014 1.15365 73.9014 1.38281C73.9014 1.61458 73.8128 1.8138 73.6357 1.98047C73.4613 2.14453 73.2503 2.22656 73.0029 2.22656ZM77.8672 11.375C77.3281 11.375 76.8659 11.3008 76.4805 11.1523C76.0977 11.0065 75.793 10.8073 75.5664 10.5547C75.3398 10.3021 75.1927 10.0182 75.125 9.70312L76.6641 9.49609C76.7109 9.61589 76.7852 9.72786 76.8867 9.83203C76.9883 9.9362 77.1224 10.0195 77.2891 10.082C77.4583 10.1471 77.6641 10.1797 77.9063 10.1797C78.2682 10.1797 78.5664 10.0911 78.8008 9.91406C79.0378 9.73958 79.1563 9.44661 79.1563 9.03516V7.9375H79.0859C79.013 8.10417 78.9036 8.26172 78.7578 8.41016C78.612 8.55859 78.4245 8.67969 78.1953 8.77344C77.9661 8.86719 77.6927 8.91406 77.375 8.91406C76.9245 8.91406 76.5143 8.8099 76.1445 8.60156C75.7773 8.39062 75.4844 8.06901 75.2656 7.63672C75.0495 7.20182 74.9414 6.65234 74.9414 5.98828C74.9414 5.30859 75.0521 4.74089 75.2734 4.28516C75.4948 3.82943 75.7891 3.48828 76.1563 3.26172C76.526 3.03516 76.931 2.92188 77.3711 2.92188C77.707 2.92188 77.9883 2.97917 78.2148 3.09375C78.4414 3.20573 78.6237 3.34635 78.7617 3.51562C78.9023 3.68229 79.0104 3.84635 79.0859 4.00781H79.1484V3H80.8008V9.05859C80.8008 9.56901 80.6758 9.99609 80.4258 10.3398C80.1758 10.6836 79.8294 10.9414 79.3867 11.1133C78.9466 11.2878 78.4401 11.375 77.8672 11.375ZM77.9023 7.66406C78.1706 7.66406 78.3971 7.59766 78.582 7.46484C78.7695 7.32943 78.9128 7.13672 79.0117 6.88672C79.1133 6.63411 79.1641 6.33203 79.1641 5.98047C79.1641 5.62891 79.1146 5.32422 79.0156 5.06641C78.9167 4.80599 78.7734 4.60417 78.5859 4.46094C78.3984 4.31771 78.1706 4.24609 77.9023 4.24609C77.6289 4.24609 77.3984 4.32031 77.2109 4.46875C77.0234 4.61458 76.8815 4.81771 76.7852 5.07812C76.6888 5.33854 76.6406 5.63932 76.6406 5.98047C76.6406 6.32682 76.6888 6.6263 76.7852 6.87891C76.8841 7.12891 77.026 7.32292 77.2109 7.46094C77.3984 7.59635 77.6289 7.66406 77.9023 7.66406ZM82.125 9V3H83.7891V9H82.125ZM82.9609 2.22656C82.7135 2.22656 82.5013 2.14453 82.3242 1.98047C82.1497 1.8138 82.0625 1.61458 82.0625 1.38281C82.0625 1.15365 82.1497 0.957031 82.3242 0.792969C82.5013 0.626302 82.7135 0.542968 82.9609 0.542968C83.2083 0.542968 83.4193 0.626302 83.5938 0.792969C83.7708 0.957031 83.8594 1.15365 83.8594 1.38281C83.8594 1.61458 83.7708 1.8138 83.5938 1.98047C83.4193 2.14453 83.2083 2.22656 82.9609 2.22656ZM88.3135 3V4.25H84.7002V3H88.3135ZM85.5205 1.5625H87.1846V7.15625C87.1846 7.3099 87.208 7.42969 87.2549 7.51562C87.3018 7.59896 87.3669 7.65755 87.4502 7.69141C87.5361 7.72526 87.6351 7.74219 87.7471 7.74219C87.8252 7.74219 87.9033 7.73568 87.9814 7.72266C88.0596 7.70703 88.1195 7.69531 88.1611 7.6875L88.4229 8.92578C88.3395 8.95182 88.2223 8.98177 88.0713 9.01563C87.9202 9.05208 87.7367 9.07422 87.5205 9.08203C87.1195 9.09766 86.7679 9.04427 86.4658 8.92187C86.1663 8.79948 85.9333 8.60937 85.7666 8.35156C85.5999 8.09375 85.5179 7.76823 85.5205 7.375V1.5625ZM91.1084 9.11328C90.7256 9.11328 90.3844 9.04688 90.085 8.91406C89.7855 8.77865 89.5485 8.57943 89.374 8.31641C89.2021 8.05078 89.1162 7.72005 89.1162 7.32422C89.1162 6.99089 89.1774 6.71094 89.2998 6.48437C89.4222 6.25781 89.5889 6.07552 89.7998 5.9375C90.0107 5.79948 90.2503 5.69531 90.5186 5.625C90.7894 5.55469 91.0732 5.50521 91.3701 5.47656C91.7191 5.4401 92.0003 5.40625 92.2139 5.375C92.4274 5.34115 92.5824 5.29167 92.6787 5.22656C92.7751 5.16146 92.8232 5.0651 92.8232 4.9375V4.91406C92.8232 4.66667 92.7451 4.47526 92.5889 4.33984C92.4352 4.20443 92.2165 4.13672 91.9326 4.13672C91.6331 4.13672 91.3949 4.20312 91.2178 4.33594C91.0407 4.46615 90.9235 4.63021 90.8662 4.82812L89.3271 4.70312C89.4053 4.33854 89.5589 4.02344 89.7881 3.75781C90.0173 3.48958 90.3128 3.28385 90.6748 3.14062C91.0394 2.99479 91.4613 2.92188 91.9404 2.92188C92.2738 2.92188 92.5928 2.96094 92.8975 3.03906C93.2048 3.11719 93.4769 3.23828 93.7139 3.40234C93.9535 3.56641 94.1423 3.77734 94.2803 4.03516C94.4183 4.29036 94.4873 4.59635 94.4873 4.95312V9H92.9092V8.16797H92.8623C92.766 8.35547 92.637 8.52083 92.4756 8.66406C92.3141 8.80469 92.1201 8.91536 91.8936 8.99609C91.667 9.07422 91.4053 9.11328 91.1084 9.11328ZM91.585 7.96484C91.8298 7.96484 92.0459 7.91667 92.2334 7.82031C92.4209 7.72135 92.568 7.58854 92.6748 7.42188C92.7816 7.25521 92.835 7.06641 92.835 6.85547V6.21875C92.7829 6.2526 92.7113 6.28385 92.6201 6.3125C92.5316 6.33854 92.4313 6.36328 92.3193 6.38672C92.2074 6.40755 92.0954 6.42708 91.9834 6.44531C91.8714 6.46094 91.7699 6.47526 91.6787 6.48828C91.4834 6.51693 91.3128 6.5625 91.167 6.625C91.0212 6.6875 90.9079 6.77214 90.8271 6.87891C90.7464 6.98307 90.7061 7.11328 90.7061 7.26953C90.7061 7.49609 90.7881 7.66927 90.9521 7.78906C91.1188 7.90625 91.3298 7.96484 91.585 7.96484ZM97.4424 1V9H95.7783V1H97.4424ZM101.353 9V1H104.509C105.116 1 105.632 1.11589 106.06 1.34766C106.487 1.57682 106.812 1.89583 107.036 2.30469C107.263 2.71094 107.376 3.17969 107.376 3.71094C107.376 4.24219 107.261 4.71094 107.032 5.11719C106.803 5.52344 106.471 5.83984 106.036 6.06641C105.604 6.29297 105.08 6.40625 104.466 6.40625H102.454V5.05078H104.192C104.518 5.05078 104.786 4.99479 104.997 4.88281C105.211 4.76823 105.369 4.61068 105.474 4.41016C105.58 4.20703 105.634 3.97396 105.634 3.71094C105.634 3.44531 105.58 3.21354 105.474 3.01562C105.369 2.8151 105.211 2.66016 104.997 2.55078C104.784 2.4388 104.513 2.38281 104.185 2.38281H103.044V9H101.353ZM111.058 9.11719C110.451 9.11719 109.926 8.98828 109.483 8.73047C109.043 8.47005 108.703 8.10807 108.464 7.64453C108.224 7.17839 108.104 6.63802 108.104 6.02344C108.104 5.40365 108.224 4.86198 108.464 4.39844C108.703 3.93229 109.043 3.57031 109.483 3.3125C109.926 3.05208 110.451 2.92188 111.058 2.92188C111.664 2.92188 112.188 3.05208 112.628 3.3125C113.071 3.57031 113.412 3.93229 113.651 4.39844C113.891 4.86198 114.011 5.40365 114.011 6.02344C114.011 6.63802 113.891 7.17839 113.651 7.64453C113.412 8.10807 113.071 8.47005 112.628 8.73047C112.188 8.98828 111.664 9.11719 111.058 9.11719ZM111.065 7.82812C111.341 7.82812 111.572 7.75 111.757 7.59375C111.942 7.4349 112.081 7.21875 112.175 6.94531C112.271 6.67187 112.319 6.36068 112.319 6.01172C112.319 5.66276 112.271 5.35156 112.175 5.07812C112.081 4.80469 111.942 4.58854 111.757 4.42969C111.572 4.27083 111.341 4.19141 111.065 4.19141C110.787 4.19141 110.552 4.27083 110.362 4.42969C110.175 4.58854 110.033 4.80469 109.937 5.07812C109.843 5.35156 109.796 5.66276 109.796 6.01172C109.796 6.36068 109.843 6.67187 109.937 6.94531C110.033 7.21875 110.175 7.4349 110.362 7.59375C110.552 7.75 110.787 7.82812 111.065 7.82812ZM118.284 3V4.25H114.671V3H118.284ZM115.491 1.5625H117.155V7.15625C117.155 7.3099 117.179 7.42969 117.226 7.51562C117.272 7.59896 117.338 7.65755 117.421 7.69141C117.507 7.72526 117.606 7.74219 117.718 7.74219C117.796 7.74219 117.874 7.73568 117.952 7.72266C118.03 7.70703 118.09 7.69531 118.132 7.6875L118.394 8.92578C118.31 8.95182 118.193 8.98177 118.042 9.01563C117.891 9.05208 117.707 9.07422 117.491 9.08203C117.09 9.09766 116.739 9.04427 116.437 8.92187C116.137 8.79948 115.904 8.60937 115.737 8.35156C115.571 8.09375 115.489 7.76823 115.491 7.375V1.5625ZM122.038 9.11719C121.421 9.11719 120.89 8.99219 120.444 8.74219C120.002 8.48958 119.66 8.13281 119.421 7.67187C119.181 7.20833 119.062 6.66016 119.062 6.02734C119.062 5.41016 119.181 4.86849 119.421 4.40234C119.66 3.9362 119.998 3.57292 120.433 3.3125C120.87 3.05208 121.383 2.92188 121.972 2.92188C122.368 2.92188 122.736 2.98568 123.077 3.11328C123.421 3.23828 123.72 3.42708 123.976 3.67969C124.233 3.93229 124.434 4.25 124.577 4.63281C124.72 5.01302 124.792 5.45833 124.792 5.96875V6.42578H119.726V5.39453H123.226C123.226 5.15495 123.174 4.94271 123.069 4.75781C122.965 4.57292 122.821 4.42839 122.636 4.32422C122.453 4.21745 122.241 4.16406 121.999 4.16406C121.746 4.16406 121.522 4.22266 121.327 4.33984C121.134 4.45443 120.983 4.60937 120.874 4.80469C120.765 4.9974 120.709 5.21224 120.706 5.44922V6.42969C120.706 6.72656 120.761 6.98307 120.87 7.19922C120.982 7.41536 121.14 7.58203 121.343 7.69922C121.546 7.81641 121.787 7.875 122.065 7.875C122.25 7.875 122.42 7.84896 122.573 7.79688C122.727 7.74479 122.858 7.66667 122.968 7.5625C123.077 7.45833 123.16 7.33073 123.218 7.17969L124.757 7.28125C124.679 7.65104 124.519 7.97396 124.276 8.25C124.037 8.52344 123.727 8.73698 123.347 8.89063C122.969 9.04167 122.533 9.11719 122.038 9.11719ZM127.542 5.53125V9H125.878V3H127.464V4.05859H127.534C127.667 3.70964 127.89 3.43359 128.202 3.23047C128.515 3.02474 128.894 2.92188 129.339 2.92188C129.756 2.92188 130.119 3.01302 130.429 3.19531C130.739 3.3776 130.979 3.63802 131.151 3.97656C131.323 4.3125 131.409 4.71354 131.409 5.17969V9H129.745V5.47656C129.748 5.10937 129.654 4.82292 129.464 4.61719C129.274 4.40885 129.012 4.30469 128.679 4.30469C128.455 4.30469 128.257 4.35286 128.085 4.44922C127.916 4.54557 127.783 4.6862 127.687 4.87109C127.593 5.05339 127.545 5.27344 127.542 5.53125ZM135.912 3V4.25H132.299V3H135.912ZM133.119 1.5625H134.783V7.15625C134.783 7.3099 134.807 7.42969 134.854 7.51562C134.9 7.59896 134.965 7.65755 135.049 7.69141C135.135 7.72526 135.234 7.74219 135.346 7.74219C135.424 7.74219 135.502 7.73568 135.58 7.72266C135.658 7.70703 135.718 7.69531 135.76 7.6875L136.021 8.92578C135.938 8.95182 135.821 8.98177 135.67 9.01563C135.519 9.05208 135.335 9.07422 135.119 9.08203C134.718 9.09766 134.367 9.04427 134.064 8.92187C133.765 8.79948 133.532 8.60937 133.365 8.35156C133.199 8.09375 133.117 7.76823 133.119 7.375V1.5625ZM136.996 9V3H138.66V9H136.996ZM137.832 2.22656C137.585 2.22656 137.372 2.14453 137.195 1.98047C137.021 1.8138 136.934 1.61458 136.934 1.38281C136.934 1.15365 137.021 0.957031 137.195 0.792969C137.372 0.626302 137.585 0.542968 137.832 0.542968C138.079 0.542968 138.29 0.626302 138.465 0.792969C138.642 0.957031 138.73 1.15365 138.73 1.38281C138.73 1.61458 138.642 1.8138 138.465 1.98047C138.29 2.14453 138.079 2.22656 137.832 2.22656ZM141.704 9.11328C141.321 9.11328 140.98 9.04688 140.681 8.91406C140.381 8.77865 140.144 8.57943 139.97 8.31641C139.798 8.05078 139.712 7.72005 139.712 7.32422C139.712 6.99089 139.773 6.71094 139.896 6.48437C140.018 6.25781 140.185 6.07552 140.396 5.9375C140.606 5.79948 140.846 5.69531 141.114 5.625C141.385 5.55469 141.669 5.50521 141.966 5.47656C142.315 5.4401 142.596 5.40625 142.81 5.375C143.023 5.34115 143.178 5.29167 143.274 5.22656C143.371 5.16146 143.419 5.0651 143.419 4.9375V4.91406C143.419 4.66667 143.341 4.47526 143.185 4.33984C143.031 4.20443 142.812 4.13672 142.528 4.13672C142.229 4.13672 141.991 4.20312 141.813 4.33594C141.636 4.46615 141.519 4.63021 141.462 4.82812L139.923 4.70312C140.001 4.33854 140.155 4.02344 140.384 3.75781C140.613 3.48958 140.909 3.28385 141.271 3.14062C141.635 2.99479 142.057 2.92188 142.536 2.92188C142.869 2.92188 143.188 2.96094 143.493 3.03906C143.8 3.11719 144.073 3.23828 144.31 3.40234C144.549 3.56641 144.738 3.77734 144.876 4.03516C145.014 4.29036 145.083 4.59635 145.083 4.95312V9H143.505V8.16797H143.458C143.362 8.35547 143.233 8.52083 143.071 8.66406C142.91 8.80469 142.716 8.91536 142.489 8.99609C142.263 9.07422 142.001 9.11328 141.704 9.11328ZM142.181 7.96484C142.425 7.96484 142.642 7.91667 142.829 7.82031C143.017 7.72135 143.164 7.58854 143.271 7.42188C143.377 7.25521 143.431 7.06641 143.431 6.85547V6.21875C143.379 6.2526 143.307 6.28385 143.216 6.3125C143.127 6.33854 143.027 6.36328 142.915 6.38672C142.803 6.40755 142.691 6.42708 142.579 6.44531C142.467 6.46094 142.366 6.47526 142.274 6.48828C142.079 6.51693 141.909 6.5625 141.763 6.625C141.617 6.6875 141.504 6.77214 141.423 6.87891C141.342 6.98307 141.302 7.11328 141.302 7.26953C141.302 7.49609 141.384 7.66927 141.548 7.78906C141.715 7.90625 141.925 7.96484 142.181 7.96484ZM148.038 1V9H146.374V1H148.038ZM11.9507 22V14H15.1069C15.7137 14 16.2306 14.1159 16.6577 14.3477C17.0848 14.5768 17.4103 14.8958 17.6343 15.3047C17.8608 15.7109 17.9741 16.1797 17.9741 16.7109C17.9741 17.2422 17.8595 17.7109 17.6304 18.1172C17.4012 18.5234 17.0692 18.8398 16.6343 19.0664C16.202 19.293 15.6785 19.4062 15.064 19.4062H13.0522V18.0508H14.7905C15.116 18.0508 15.3843 17.9948 15.5952 17.8828C15.8088 17.7682 15.9676 17.6107 16.0718 17.4102C16.1785 17.207 16.2319 16.974 16.2319 16.7109C16.2319 16.4453 16.1785 16.2135 16.0718 16.0156C15.9676 15.8151 15.8088 15.6602 15.5952 15.5508C15.3817 15.4388 15.1108 15.3828 14.7827 15.3828H13.6421V22H11.9507ZM21.6558 22.1172C21.049 22.1172 20.5243 21.9883 20.0815 21.7305C19.6414 21.4701 19.3016 21.1081 19.062 20.6445C18.8224 20.1784 18.7026 19.638 18.7026 19.0234C18.7026 18.4036 18.8224 17.862 19.062 17.3984C19.3016 16.9323 19.6414 16.5703 20.0815 16.3125C20.5243 16.0521 21.049 15.9219 21.6558 15.9219C22.2625 15.9219 22.786 16.0521 23.2261 16.3125C23.6688 16.5703 24.0099 16.9323 24.2495 17.3984C24.4891 17.862 24.6089 18.4036 24.6089 19.0234C24.6089 19.638 24.4891 20.1784 24.2495 20.6445C24.0099 21.1081 23.6688 21.4701 23.2261 21.7305C22.786 21.9883 22.2625 22.1172 21.6558 22.1172ZM21.6636 20.8281C21.9396 20.8281 22.1701 20.75 22.355 20.5938C22.5399 20.4349 22.6792 20.2187 22.7729 19.9453C22.8693 19.6719 22.9175 19.3607 22.9175 19.0117C22.9175 18.6628 22.8693 18.3516 22.7729 18.0781C22.6792 17.8047 22.5399 17.5885 22.355 17.4297C22.1701 17.2708 21.9396 17.1914 21.6636 17.1914C21.3849 17.1914 21.1506 17.2708 20.9604 17.4297C20.7729 17.5885 20.631 17.8047 20.5347 18.0781C20.4409 18.3516 20.394 18.6628 20.394 19.0117C20.394 19.3607 20.4409 19.6719 20.5347 19.9453C20.631 20.2187 20.7729 20.4349 20.9604 20.5938C21.1506 20.75 21.3849 20.8281 21.6636 20.8281ZM26.7241 22L25.0913 16H26.7749L27.7046 20.0312H27.7593L28.728 16H30.3804L31.3647 20.0078H31.4155L32.3296 16H34.0093L32.3804 22H30.6187L29.5874 18.2266H29.5132L28.4819 22H26.7241ZM37.481 22.1172C36.8638 22.1172 36.3325 21.9922 35.8872 21.7422C35.4445 21.4896 35.1034 21.1328 34.8638 20.6719C34.6242 20.2083 34.5044 19.6602 34.5044 19.0273C34.5044 18.4102 34.6242 17.8685 34.8638 17.4023C35.1034 16.9362 35.4406 16.5729 35.8755 16.3125C36.313 16.0521 36.826 15.9219 37.4146 15.9219C37.8104 15.9219 38.1789 15.9857 38.52 16.1133C38.8638 16.2383 39.1632 16.4271 39.4185 16.6797C39.6763 16.9323 39.8768 17.25 40.02 17.6328C40.1632 18.013 40.2349 18.4583 40.2349 18.9687V19.4258H35.1685V18.3945H38.6685C38.6685 18.1549 38.6164 17.9427 38.5122 17.7578C38.408 17.5729 38.2635 17.4284 38.0786 17.3242C37.8963 17.2174 37.6841 17.1641 37.4419 17.1641C37.1893 17.1641 36.9653 17.2227 36.77 17.3398C36.5773 17.4544 36.4263 17.6094 36.3169 17.8047C36.2075 17.9974 36.1515 18.2122 36.1489 18.4492V19.4297C36.1489 19.7266 36.2036 19.9831 36.313 20.1992C36.425 20.4154 36.5825 20.582 36.7856 20.6992C36.9888 20.8164 37.2297 20.875 37.5083 20.875C37.6932 20.875 37.8625 20.849 38.0161 20.7969C38.1698 20.7448 38.3013 20.6667 38.4106 20.5625C38.52 20.4583 38.6034 20.3307 38.6606 20.1797L40.1997 20.2812C40.1216 20.651 39.9614 20.974 39.7192 21.25C39.4797 21.5234 39.1698 21.737 38.7896 21.8906C38.4119 22.0417 37.9757 22.1172 37.481 22.1172ZM41.3208 22V16H42.9341V17.0469H42.9966C43.106 16.6745 43.2896 16.3932 43.5474 16.2031C43.8052 16.0104 44.1021 15.9141 44.438 15.9141C44.5213 15.9141 44.6112 15.9193 44.7075 15.9297C44.8039 15.9401 44.8885 15.9544 44.9614 15.9727V17.4492C44.8833 17.4258 44.7752 17.4049 44.6372 17.3867C44.4992 17.3685 44.3729 17.3594 44.2583 17.3594C44.0135 17.3594 43.7948 17.4128 43.6021 17.5195C43.4119 17.6237 43.2609 17.7695 43.1489 17.957C43.0396 18.1445 42.9849 18.3607 42.9849 18.6055V22H41.3208ZM45.8218 22V16H47.4858V22H45.8218ZM46.6577 15.2266C46.4103 15.2266 46.1981 15.1445 46.021 14.9805C45.8465 14.8138 45.7593 14.6146 45.7593 14.3828C45.7593 14.1536 45.8465 13.957 46.021 13.793C46.1981 13.6263 46.4103 13.543 46.6577 13.543C46.9051 13.543 47.116 13.6263 47.2905 13.793C47.4676 13.957 47.5562 14.1536 47.5562 14.3828C47.5562 14.6146 47.4676 14.8138 47.2905 14.9805C47.116 15.1445 46.9051 15.2266 46.6577 15.2266ZM50.4829 18.5313V22H48.8188V16H50.4048V17.0586H50.4751C50.6079 16.7096 50.8306 16.4336 51.1431 16.2305C51.4556 16.0247 51.8345 15.9219 52.2798 15.9219C52.6965 15.9219 53.0597 16.013 53.3696 16.1953C53.6795 16.3776 53.9204 16.638 54.0923 16.9766C54.2642 17.3125 54.3501 17.7135 54.3501 18.1797V22H52.686V18.4766C52.6886 18.1094 52.5949 17.8229 52.4048 17.6172C52.2147 17.4089 51.953 17.3047 51.6196 17.3047C51.3957 17.3047 51.1978 17.3529 51.0259 17.4492C50.8566 17.5456 50.7238 17.6862 50.6274 17.8711C50.5337 18.0534 50.4855 18.2734 50.4829 18.5313ZM58.3647 24.375C57.8257 24.375 57.3634 24.3008 56.978 24.1523C56.5952 24.0065 56.2905 23.8073 56.064 23.5547C55.8374 23.3021 55.6903 23.0182 55.6226 22.7031L57.1616 22.4961C57.2085 22.6159 57.2827 22.7279 57.3843 22.832C57.4858 22.9362 57.62 23.0195 57.7866 23.082C57.9559 23.1471 58.1616 23.1797 58.4038 23.1797C58.7658 23.1797 59.064 23.0911 59.2983 22.9141C59.5353 22.7396 59.6538 22.4466 59.6538 22.0352V20.9375H59.5835C59.5106 21.1042 59.4012 21.2617 59.2554 21.4102C59.1095 21.5586 58.922 21.6797 58.6929 21.7734C58.4637 21.8672 58.1903 21.9141 57.8726 21.9141C57.422 21.9141 57.0119 21.8099 56.6421 21.6016C56.2749 21.3906 55.9819 21.069 55.7632 20.6367C55.547 20.2018 55.439 19.6523 55.439 18.9883C55.439 18.3086 55.5496 17.7409 55.771 17.2852C55.9924 16.8294 56.2866 16.4883 56.6538 16.2617C57.0236 16.0352 57.4285 15.9219 57.8687 15.9219C58.2046 15.9219 58.4858 15.9792 58.7124 16.0938C58.939 16.2057 59.1213 16.3464 59.2593 16.5156C59.3999 16.6823 59.508 16.8464 59.5835 17.0078H59.646V16H61.2983V22.0586C61.2983 22.569 61.1733 22.9961 60.9233 23.3398C60.6733 23.6836 60.327 23.9414 59.8843 24.1133C59.4442 24.2878 58.9377 24.375 58.3647 24.375ZM58.3999 20.6641C58.6681 20.6641 58.8947 20.5977 59.0796 20.4648C59.2671 20.3294 59.4103 20.1367 59.5093 19.8867C59.6108 19.6341 59.6616 19.332 59.6616 18.9805C59.6616 18.6289 59.6121 18.3242 59.5132 18.0664C59.4142 17.806 59.271 17.6042 59.0835 17.4609C58.896 17.3177 58.6681 17.2461 58.3999 17.2461C58.1265 17.2461 57.896 17.3203 57.7085 17.4687C57.521 17.6146 57.3791 17.8177 57.2827 18.0781C57.1864 18.3385 57.1382 18.6393 57.1382 18.9805C57.1382 19.3268 57.1864 19.6263 57.2827 19.8789C57.3817 20.1289 57.5236 20.3229 57.7085 20.4609C57.896 20.5964 58.1265 20.6641 58.3999 20.6641ZM64.731 14H66.6255L68.4497 17.4453H68.5278L70.3521 14H72.2466L69.3286 19.1719V22H67.6489V19.1719L64.731 14ZM74.5933 22.1172C73.9865 22.1172 73.4618 21.9883 73.019 21.7305C72.5789 21.4701 72.2391 21.1081 71.9995 20.6445C71.7599 20.1784 71.6401 19.638 71.6401 19.0234C71.6401 18.4036 71.7599 17.862 71.9995 17.3984C72.2391 16.9323 72.5789 16.5703 73.019 16.3125C73.4618 16.0521 73.9865 15.9219 74.5933 15.9219C75.2 15.9219 75.7235 16.0521 76.1636 16.3125C76.6063 16.5703 76.9474 16.9323 77.187 17.3984C77.4266 17.862 77.5464 18.4036 77.5464 19.0234C77.5464 19.638 77.4266 20.1784 77.187 20.6445C76.9474 21.1081 76.6063 21.4701 76.1636 21.7305C75.7235 21.9883 75.2 22.1172 74.5933 22.1172ZM74.6011 20.8281C74.8771 20.8281 75.1076 20.75 75.2925 20.5938C75.4774 20.4349 75.6167 20.2187 75.7104 19.9453C75.8068 19.6719 75.855 19.3607 75.855 19.0117C75.855 18.6628 75.8068 18.3516 75.7104 18.0781C75.6167 17.8047 75.4774 17.5885 75.2925 17.4297C75.1076 17.2708 74.8771 17.1914 74.6011 17.1914C74.3224 17.1914 74.0881 17.2708 73.8979 17.4297C73.7104 17.5885 73.5685 17.8047 73.4722 18.0781C73.3784 18.3516 73.3315 18.6628 73.3315 19.0117C73.3315 19.3607 73.3784 19.6719 73.4722 19.9453C73.5685 20.2187 73.7104 20.4349 73.8979 20.5938C74.0881 20.75 74.3224 20.8281 74.6011 20.8281ZM82.4761 19.4453V16H84.1401V22H82.5425V20.9102H82.48C82.3446 21.2617 82.1193 21.5443 81.8042 21.7578C81.4917 21.9714 81.1102 22.0781 80.6597 22.0781C80.2586 22.0781 79.9058 21.987 79.6011 21.8047C79.2964 21.6224 79.0581 21.3633 78.8862 21.0273C78.717 20.6914 78.631 20.2891 78.6284 19.8203V16H80.2925V19.5234C80.2951 19.8776 80.3901 20.1576 80.5776 20.3633C80.7651 20.569 81.0164 20.6719 81.3315 20.6719C81.5321 20.6719 81.7196 20.6263 81.894 20.5352C82.0685 20.4414 82.2091 20.3034 82.3159 20.1211C82.4253 19.9388 82.4787 19.7135 82.4761 19.4453ZM85.4712 22V16H87.0845V17.0469H87.147C87.2563 16.6745 87.4399 16.3932 87.6978 16.2031C87.9556 16.0104 88.2524 15.9141 88.5884 15.9141C88.6717 15.9141 88.7616 15.9193 88.8579 15.9297C88.9543 15.9401 89.0389 15.9544 89.1118 15.9727V17.4492C89.0337 17.4258 88.9256 17.4049 88.7876 17.3867C88.6496 17.3685 88.5233 17.3594 88.4087 17.3594C88.1639 17.3594 87.9451 17.4128 87.7524 17.5195C87.5623 17.6237 87.4113 17.7695 87.2993 17.957C87.1899 18.1445 87.1353 18.3607 87.1353 18.6055V22H85.4712ZM96.8892 16.3008C96.8579 15.9857 96.7238 15.7409 96.4868 15.5664C96.2498 15.3919 95.9282 15.3047 95.522 15.3047C95.2459 15.3047 95.0129 15.3437 94.8228 15.4219C94.6326 15.4974 94.4868 15.6029 94.3853 15.7383C94.2863 15.8737 94.2368 16.0273 94.2368 16.1992C94.2316 16.3424 94.2616 16.4674 94.3267 16.5742C94.3944 16.681 94.4868 16.7734 94.604 16.8516C94.7212 16.9271 94.8566 16.9935 95.0103 17.0508C95.1639 17.1055 95.328 17.1523 95.5024 17.1914L96.2212 17.3633C96.5701 17.4414 96.8905 17.5456 97.1821 17.6758C97.4738 17.806 97.7264 17.9661 97.9399 18.1562C98.1535 18.3464 98.3188 18.5703 98.436 18.8281C98.5558 19.0859 98.617 19.3815 98.6196 19.7148C98.617 20.2044 98.492 20.6289 98.2446 20.9883C97.9998 21.3451 97.6457 21.6224 97.1821 21.8203C96.7212 22.0156 96.1652 22.1133 95.5142 22.1133C94.8683 22.1133 94.3058 22.0143 93.8267 21.8164C93.3501 21.6185 92.9777 21.3255 92.7095 20.9375C92.4438 20.5469 92.3045 20.0638 92.2915 19.4883H93.9282C93.9465 19.7565 94.0233 19.9805 94.1587 20.1602C94.2967 20.3372 94.4803 20.4714 94.7095 20.5625C94.9412 20.651 95.203 20.6953 95.4946 20.6953C95.7811 20.6953 96.0298 20.6536 96.2407 20.5703C96.4543 20.487 96.6196 20.3711 96.7368 20.2227C96.854 20.0742 96.9126 19.9036 96.9126 19.7109C96.9126 19.5312 96.8592 19.3802 96.7524 19.2578C96.6483 19.1354 96.4946 19.0312 96.2915 18.9453C96.091 18.8594 95.8449 18.7812 95.5532 18.7109L94.6821 18.4922C94.0076 18.3281 93.4751 18.0716 93.0845 17.7227C92.6938 17.3737 92.4998 16.9036 92.5024 16.3125C92.4998 15.8281 92.6287 15.4049 92.8892 15.043C93.1522 14.681 93.5129 14.3984 93.9712 14.1953C94.4295 13.9922 94.9504 13.8906 95.5337 13.8906C96.1274 13.8906 96.6457 13.9922 97.0884 14.1953C97.5337 14.3984 97.88 14.681 98.1274 15.043C98.3748 15.4049 98.5024 15.8242 98.5103 16.3008H96.8892ZM103.574 19.4453V16H105.238V22H103.64V20.9102H103.578C103.442 21.2617 103.217 21.5443 102.902 21.7578C102.589 21.9714 102.208 22.0781 101.757 22.0781C101.356 22.0781 101.003 21.987 100.699 21.8047C100.394 21.6224 100.156 21.3633 99.9839 21.0273C99.8146 20.6914 99.7287 20.2891 99.7261 19.8203V16H101.39V19.5234C101.393 19.8776 101.488 20.1576 101.675 20.3633C101.863 20.569 102.114 20.6719 102.429 20.6719C102.63 20.6719 102.817 20.6263 102.992 20.5352C103.166 20.4414 103.307 20.3034 103.414 20.1211C103.523 19.9388 103.576 19.7135 103.574 19.4453ZM109.28 22.1172C108.665 22.1172 108.137 21.987 107.694 21.7266C107.254 21.4635 106.915 21.099 106.678 20.6328C106.444 20.1667 106.327 19.6302 106.327 19.0234C106.327 18.4089 106.445 17.8698 106.682 17.4062C106.922 16.9401 107.262 16.5768 107.702 16.3164C108.142 16.0534 108.665 15.9219 109.272 15.9219C109.795 15.9219 110.254 16.0169 110.647 16.207C111.04 16.3971 111.351 16.6641 111.581 17.0078C111.81 17.3516 111.936 17.7552 111.959 18.2188H110.389C110.345 17.9193 110.228 17.6784 110.038 17.4961C109.85 17.3112 109.604 17.2187 109.299 17.2187C109.042 17.2187 108.816 17.2891 108.624 17.4297C108.433 17.5677 108.285 17.7695 108.178 18.0352C108.071 18.3008 108.018 18.6224 108.018 19C108.018 19.3828 108.07 19.7083 108.174 19.9766C108.281 20.2448 108.431 20.4492 108.624 20.5898C108.816 20.7305 109.042 20.8008 109.299 20.8008C109.489 20.8008 109.66 20.7617 109.811 20.6836C109.965 20.6055 110.091 20.4922 110.19 20.3437C110.292 20.1927 110.358 20.0117 110.389 19.8008H111.959C111.933 20.2591 111.808 20.6628 111.584 21.0117C111.363 21.3581 111.057 21.6289 110.667 21.8242C110.276 22.0195 109.814 22.1172 109.28 22.1172ZM115.736 22.1172C115.121 22.1172 114.593 21.987 114.15 21.7266C113.71 21.4635 113.371 21.099 113.134 20.6328C112.9 20.1667 112.783 19.6302 112.783 19.0234C112.783 18.4089 112.901 17.8698 113.138 17.4062C113.378 16.9401 113.718 16.5768 114.158 16.3164C114.598 16.0534 115.121 15.9219 115.728 15.9219C116.251 15.9219 116.71 16.0169 117.103 16.207C117.496 16.3971 117.807 16.6641 118.037 17.0078C118.266 17.3516 118.392 17.7552 118.416 18.2188H116.845C116.801 17.9193 116.684 17.6784 116.494 17.4961C116.306 17.3112 116.06 17.2187 115.755 17.2187C115.498 17.2187 115.272 17.2891 115.08 17.4297C114.889 17.5677 114.741 17.7695 114.634 18.0352C114.528 18.3008 114.474 18.6224 114.474 19C114.474 19.3828 114.526 19.7083 114.63 19.9766C114.737 20.2448 114.887 20.4492 115.08 20.5898C115.272 20.7305 115.498 20.8008 115.755 20.8008C115.945 20.8008 116.116 20.7617 116.267 20.6836C116.421 20.6055 116.547 20.4922 116.646 20.3437C116.748 20.1927 116.814 20.0117 116.845 19.8008H118.416C118.389 20.2591 118.264 20.6628 118.041 21.0117C117.819 21.3581 117.513 21.6289 117.123 21.8242C116.732 22.0195 116.27 22.1172 115.736 22.1172ZM122.215 22.1172C121.598 22.1172 121.067 21.9922 120.622 21.7422C120.179 21.4896 119.838 21.1328 119.598 20.6719C119.359 20.2083 119.239 19.6602 119.239 19.0273C119.239 18.4102 119.359 17.8685 119.598 17.4023C119.838 16.9362 120.175 16.5729 120.61 16.3125C121.047 16.0521 121.56 15.9219 122.149 15.9219C122.545 15.9219 122.913 15.9857 123.254 16.1133C123.598 16.2383 123.898 16.4271 124.153 16.6797C124.411 16.9323 124.611 17.25 124.754 17.6328C124.898 18.013 124.969 18.4583 124.969 18.9687V19.4258H119.903V18.3945H123.403C123.403 18.1549 123.351 17.9427 123.247 17.7578C123.142 17.5729 122.998 17.4284 122.813 17.3242C122.631 17.2174 122.418 17.1641 122.176 17.1641C121.924 17.1641 121.7 17.2227 121.504 17.3398C121.312 17.4544 121.161 17.6094 121.051 17.8047C120.942 17.9974 120.886 18.2122 120.883 18.4492V19.4297C120.883 19.7266 120.938 19.9831 121.047 20.1992C121.159 20.4154 121.317 20.582 121.52 20.6992C121.723 20.8164 121.964 20.875 122.243 20.875C122.428 20.875 122.597 20.849 122.75 20.7969C122.904 20.7448 123.036 20.6667 123.145 20.5625C123.254 20.4583 123.338 20.3307 123.395 20.1797L124.934 20.2812C124.856 20.651 124.696 20.974 124.454 21.25C124.214 21.5234 123.904 21.737 123.524 21.8906C123.146 22.0417 122.71 22.1172 122.215 22.1172ZM131.047 17.7109L129.524 17.8047C129.498 17.6745 129.442 17.5573 129.356 17.4531C129.27 17.3464 129.157 17.2617 129.016 17.1992C128.878 17.1341 128.713 17.1016 128.52 17.1016C128.262 17.1016 128.045 17.1562 127.868 17.2656C127.691 17.3724 127.602 17.5156 127.602 17.6953C127.602 17.8385 127.659 17.9596 127.774 18.0586C127.889 18.1576 128.085 18.237 128.364 18.2969L129.45 18.5156C130.033 18.6354 130.468 18.8281 130.754 19.0937C131.041 19.3594 131.184 19.7083 131.184 20.1406C131.184 20.5339 131.068 20.8789 130.836 21.1758C130.607 21.4727 130.292 21.7044 129.891 21.8711C129.493 22.0352 129.033 22.1172 128.512 22.1172C127.718 22.1172 127.085 21.9518 126.614 21.6211C126.145 21.2878 125.87 20.8346 125.79 20.2617L127.426 20.1758C127.476 20.418 127.596 20.6029 127.786 20.7305C127.976 20.8555 128.219 20.918 128.516 20.918C128.808 20.918 129.042 20.862 129.219 20.75C129.399 20.6354 129.49 20.4883 129.493 20.3086C129.49 20.1576 129.426 20.0339 129.301 19.9375C129.176 19.8385 128.984 19.763 128.723 19.7109L127.684 19.5039C127.098 19.3867 126.662 19.1836 126.375 18.8945C126.092 18.6055 125.95 18.237 125.95 17.7891C125.95 17.4036 126.054 17.0716 126.262 16.793C126.473 16.5143 126.769 16.2995 127.149 16.1484C127.532 15.9974 127.98 15.9219 128.493 15.9219C129.25 15.9219 129.847 16.082 130.282 16.4023C130.719 16.7227 130.974 17.1589 131.047 17.7109ZM137.224 17.7109L135.701 17.8047C135.675 17.6745 135.619 17.5573 135.533 17.4531C135.447 17.3464 135.333 17.2617 135.193 17.1992C135.055 17.1341 134.889 17.1016 134.697 17.1016C134.439 17.1016 134.222 17.1562 134.044 17.2656C133.867 17.3724 133.779 17.5156 133.779 17.6953C133.779 17.8385 133.836 17.9596 133.951 18.0586C134.065 18.1576 134.262 18.237 134.541 18.2969L135.626 18.5156C136.21 18.6354 136.645 18.8281 136.931 19.0937C137.218 19.3594 137.361 19.7083 137.361 20.1406C137.361 20.5339 137.245 20.8789 137.013 21.1758C136.784 21.4727 136.469 21.7044 136.068 21.8711C135.669 22.0352 135.21 22.1172 134.689 22.1172C133.895 22.1172 133.262 21.9518 132.791 21.6211C132.322 21.2878 132.047 20.8346 131.966 20.2617L133.603 20.1758C133.653 20.418 133.772 20.6029 133.962 20.7305C134.153 20.8555 134.396 20.918 134.693 20.918C134.985 20.918 135.219 20.862 135.396 20.75C135.576 20.6354 135.667 20.4883 135.669 20.3086C135.667 20.1576 135.603 20.0339 135.478 19.9375C135.353 19.8385 135.16 19.763 134.9 19.7109L133.861 19.5039C133.275 19.3867 132.839 19.1836 132.552 18.8945C132.268 18.6055 132.126 18.237 132.126 17.7891C132.126 17.4036 132.231 17.0716 132.439 16.793C132.65 16.5143 132.945 16.2995 133.326 16.1484C133.708 15.9974 134.156 15.9219 134.669 15.9219C135.427 15.9219 136.024 16.082 136.458 16.4023C136.896 16.7227 137.151 17.1589 137.224 17.7109Z" fill="url(#paint0_linear_203_3)"/>
<defs>
<linearGradient id="paint0_linear_203_3" x1="-35.3" y1="-11.3822" x2="183.704" y2="-5.90576" gradientUnits="userSpaceOnUse">
<stop stop-color="#0054D6"/>
<stop offset="1" stop-color="#BA1A1A"/>
</linearGradient>
</defs>
</svg>
