<svg width="280" height="12" viewBox="0 0 280 12" fill="none" xmlns="http://www.w3.org/2000/svg">
<path d="M5.43506 1H7.12646V6.19531C7.12646 6.77865 6.98714 7.28906 6.7085 7.72656C6.43245 8.16406 6.04574 8.50521 5.54834 8.75C5.05094 8.99219 4.47152 9.11328 3.81006 9.11328C3.146 9.11328 2.56527 8.99219 2.06787 8.75C1.57048 8.50521 1.18376 8.16406 0.907715 7.72656C0.631673 7.28906 0.493652 6.77865 0.493652 6.19531V1H2.18506V6.05078C2.18506 6.35547 2.25146 6.6263 2.38428 6.86328C2.51969 7.10026 2.7098 7.28646 2.95459 7.42188C3.19938 7.55729 3.48454 7.625 3.81006 7.625C4.13818 7.625 4.42334 7.55729 4.66553 7.42188C4.91032 7.28646 5.09912 7.10026 5.23193 6.86328C5.36735 6.6263 5.43506 6.35547 5.43506 6.05078V1ZM10.1509 5.53125V9H8.48682V3H10.0728V4.05859H10.1431C10.2759 3.70964 10.4985 3.43359 10.811 3.23047C11.1235 3.02474 11.5024 2.92188 11.9478 2.92188C12.3644 2.92188 12.7277 3.01302 13.0376 3.19531C13.3475 3.3776 13.5884 3.63802 13.7603 3.97656C13.9321 4.3125 14.0181 4.71354 14.0181 5.17969V9H12.354V5.47656C12.3566 5.10937 12.2629 4.82292 12.0728 4.61719C11.8826 4.40885 11.6209 4.30469 11.2876 4.30469C11.0636 4.30469 10.8657 4.35286 10.6938 4.44922C10.5246 4.54557 10.3918 4.6862 10.2954 4.87109C10.2017 5.05339 10.1535 5.27344 10.1509 5.53125ZM16.9937 1V9H15.3296V1H16.9937ZM21.061 9.11719C20.4438 9.11719 19.9126 8.99219 19.4673 8.74219C19.0246 8.48958 18.6834 8.13281 18.4438 7.67187C18.2043 7.20833 18.0845 6.66016 18.0845 6.02734C18.0845 5.41016 18.2043 4.86849 18.4438 4.40234C18.6834 3.9362 19.0207 3.57292 19.4556 3.3125C19.8931 3.05208 20.4061 2.92188 20.9946 2.92188C21.3905 2.92188 21.759 2.98568 22.1001 3.11328C22.4438 3.23828 22.7433 3.42708 22.9985 3.67969C23.2563 3.93229 23.4569 4.25 23.6001 4.63281C23.7433 5.01302 23.8149 5.45833 23.8149 5.96875V6.42578H18.7485V5.39453H22.2485C22.2485 5.15495 22.1965 4.94271 22.0923 4.75781C21.9881 4.57292 21.8436 4.42839 21.6587 4.32422C21.4764 4.21745 21.2642 4.16406 21.022 4.16406C20.7694 4.16406 20.5454 4.22266 20.3501 4.33984C20.1574 4.45443 20.0063 4.60937 19.897 4.80469C19.7876 4.9974 19.7316 5.21224 19.729 5.44922V6.42969C19.729 6.72656 19.7837 6.98307 19.8931 7.19922C20.005 7.41536 20.1626 7.58203 20.3657 7.69922C20.5688 7.81641 20.8097 7.875 21.0884 7.875C21.2733 7.875 21.4425 7.84896 21.5962 7.79688C21.7498 7.74479 21.8813 7.66667 21.9907 7.5625C22.1001 7.45833 22.1834 7.33073 22.2407 7.17969L23.7798 7.28125C23.7017 7.65104 23.5415 7.97396 23.2993 8.25C23.0597 8.52344 22.7498 8.73698 22.3696 8.89063C21.992 9.04167 21.5558 9.11719 21.061 9.11719ZM26.6118 9.11328C26.229 9.11328 25.8879 9.04688 25.5884 8.91406C25.2889 8.77865 25.0519 8.57943 24.8774 8.31641C24.7056 8.05078 24.6196 7.72005 24.6196 7.32422C24.6196 6.99089 24.6808 6.71094 24.8032 6.48437C24.9256 6.25781 25.0923 6.07552 25.3032 5.9375C25.5142 5.79948 25.7537 5.69531 26.022 5.625C26.2928 5.55469 26.5767 5.50521 26.8735 5.47656C27.2225 5.4401 27.5037 5.40625 27.7173 5.375C27.9308 5.34115 28.0858 5.29167 28.1821 5.22656C28.2785 5.16146 28.3267 5.0651 28.3267 4.9375V4.91406C28.3267 4.66667 28.2485 4.47526 28.0923 4.33984C27.9386 4.20443 27.7199 4.13672 27.436 4.13672C27.1366 4.13672 26.8983 4.20312 26.7212 4.33594C26.5441 4.46615 26.4269 4.63021 26.3696 4.82812L24.8306 4.70312C24.9087 4.33854 25.0623 4.02344 25.2915 3.75781C25.5207 3.48958 25.8162 3.28385 26.1782 3.14062C26.5428 2.99479 26.9647 2.92188 27.4438 2.92188C27.7772 2.92188 28.0962 2.96094 28.4009 3.03906C28.7082 3.11719 28.9803 3.23828 29.2173 3.40234C29.4569 3.56641 29.6457 3.77734 29.7837 4.03516C29.9217 4.29036 29.9907 4.59635 29.9907 4.95312V9H28.4126V8.16797H28.3657C28.2694 8.35547 28.1405 8.52083 27.979 8.66406C27.8175 8.80469 27.6235 8.91536 27.397 8.99609C27.1704 9.07422 26.9087 9.11328 26.6118 9.11328ZM27.0884 7.96484C27.3332 7.96484 27.5493 7.91667 27.7368 7.82031C27.9243 7.72135 28.0715 7.58854 28.1782 7.42188C28.285 7.25521 28.3384 7.06641 28.3384 6.85547V6.21875C28.2863 6.2526 28.2147 6.28385 28.1235 6.3125C28.035 6.33854 27.9347 6.36328 27.8228 6.38672C27.7108 6.40755 27.5988 6.42708 27.4868 6.44531C27.3748 6.46094 27.2733 6.47526 27.1821 6.48828C26.9868 6.51693 26.8162 6.5625 26.6704 6.625C26.5246 6.6875 26.4113 6.77214 26.3306 6.87891C26.2498 6.98307 26.2095 7.11328 26.2095 7.26953C26.2095 7.49609 26.2915 7.66927 26.4556 7.78906C26.6222 7.90625 26.8332 7.96484 27.0884 7.96484ZM36.2739 4.71094L34.7505 4.80469C34.7244 4.67448 34.6685 4.55729 34.5825 4.45312C34.4966 4.34635 34.3833 4.26172 34.2427 4.19922C34.1047 4.13411 33.9393 4.10156 33.7466 4.10156C33.4888 4.10156 33.2713 4.15625 33.0942 4.26562C32.9172 4.3724 32.8286 4.51562 32.8286 4.69531C32.8286 4.83854 32.8859 4.95964 33.0005 5.05859C33.1151 5.15755 33.3117 5.23698 33.5903 5.29687L34.6763 5.51562C35.2596 5.63542 35.6945 5.82812 35.981 6.09375C36.2674 6.35937 36.4106 6.70833 36.4106 7.14062C36.4106 7.53385 36.2948 7.87891 36.063 8.17578C35.8338 8.47266 35.5187 8.70443 35.1177 8.87109C34.7192 9.03516 34.2596 9.11719 33.7388 9.11719C32.9445 9.11719 32.3117 8.95182 31.8403 8.62109C31.3716 8.28776 31.0968 7.83464 31.0161 7.26172L32.6528 7.17578C32.7023 7.41797 32.8221 7.60286 33.0122 7.73047C33.2023 7.85547 33.4458 7.91797 33.7427 7.91797C34.0343 7.91797 34.2687 7.86198 34.4458 7.75C34.6255 7.63542 34.7166 7.48828 34.7192 7.30859C34.7166 7.15755 34.6528 7.03385 34.5278 6.9375C34.4028 6.83854 34.2101 6.76302 33.9497 6.71094L32.9106 6.50391C32.3247 6.38672 31.8885 6.18359 31.6021 5.89453C31.3182 5.60547 31.1763 5.23698 31.1763 4.78906C31.1763 4.40365 31.2804 4.07161 31.4888 3.79297C31.6997 3.51432 31.9953 3.29948 32.3755 3.14844C32.7583 2.9974 33.2062 2.92188 33.7192 2.92188C34.4771 2.92188 35.0734 3.08203 35.5083 3.40234C35.9458 3.72266 36.201 4.15885 36.2739 4.71094ZM39.1226 5.53125V9H37.4585V1H39.0757V4.05859H39.146C39.2814 3.70443 39.5002 3.42708 39.8022 3.22656C40.1043 3.02344 40.4832 2.92188 40.939 2.92188C41.3556 2.92188 41.7189 3.01302 42.0288 3.19531C42.3413 3.375 42.5835 3.63411 42.7554 3.97266C42.9299 4.30859 43.0158 4.71094 43.0132 5.17969V9H41.3491V5.47656C41.3517 5.10677 41.258 4.81901 41.0679 4.61328C40.8804 4.40755 40.6174 4.30469 40.2788 4.30469C40.0522 4.30469 39.8517 4.35286 39.6772 4.44922C39.5054 4.54557 39.37 4.6862 39.271 4.87109C39.1746 5.05339 39.1252 5.27344 39.1226 5.53125ZM44.3228 9V3H45.9868V9H44.3228ZM45.1587 2.22656C44.9113 2.22656 44.6991 2.14453 44.522 1.98047C44.3475 1.8138 44.2603 1.61458 44.2603 1.38281C44.2603 1.15365 44.3475 0.957031 44.522 0.792969C44.6991 0.626302 44.9113 0.542968 45.1587 0.542968C45.4061 0.542968 45.617 0.626302 45.7915 0.792969C45.9686 0.957031 46.0571 1.15365 46.0571 1.38281C46.0571 1.61458 45.9686 1.8138 45.7915 1.98047C45.617 2.14453 45.4061 2.22656 45.1587 2.22656ZM48.9839 5.53125V9H47.3198V3H48.9058V4.05859H48.9761C49.1089 3.70964 49.3315 3.43359 49.644 3.23047C49.9565 3.02474 50.3354 2.92188 50.7808 2.92188C51.1974 2.92188 51.5607 3.01302 51.8706 3.19531C52.1805 3.3776 52.4214 3.63802 52.5933 3.97656C52.7651 4.3125 52.8511 4.71354 52.8511 5.17969V9H51.187V5.47656C51.1896 5.10937 51.0959 4.82292 50.9058 4.61719C50.7157 4.40885 50.4539 4.30469 50.1206 4.30469C49.8966 4.30469 49.6987 4.35286 49.5269 4.44922C49.3576 4.54557 49.2248 4.6862 49.1284 4.87109C49.0347 5.05339 48.9865 5.27344 48.9839 5.53125ZM56.8657 11.375C56.3267 11.375 55.8644 11.3008 55.479 11.1523C55.0962 11.0065 54.7915 10.8073 54.5649 10.5547C54.3384 10.3021 54.1912 10.0182 54.1235 9.70312L55.6626 9.49609C55.7095 9.61589 55.7837 9.72786 55.8853 9.83203C55.9868 9.9362 56.1209 10.0195 56.2876 10.082C56.4569 10.1471 56.6626 10.1797 56.9048 10.1797C57.2668 10.1797 57.5649 10.0911 57.7993 9.91406C58.0363 9.73958 58.1548 9.44661 58.1548 9.03516V7.9375H58.0845C58.0116 8.10417 57.9022 8.26172 57.7563 8.41016C57.6105 8.55859 57.423 8.67969 57.1938 8.77344C56.9647 8.86719 56.6912 8.91406 56.3735 8.91406C55.923 8.91406 55.5129 8.8099 55.1431 8.60156C54.7759 8.39062 54.4829 8.06901 54.2642 7.63672C54.048 7.20182 53.9399 6.65234 53.9399 5.98828C53.9399 5.30859 54.0506 4.74089 54.272 4.28516C54.4933 3.82943 54.7876 3.48828 55.1548 3.26172C55.5246 3.03516 55.9295 2.92188 56.3696 2.92188C56.7056 2.92188 56.9868 2.97917 57.2134 3.09375C57.4399 3.20573 57.6222 3.34635 57.7603 3.51562C57.9009 3.68229 58.009 3.84635 58.0845 4.00781H58.147V3H59.7993V9.05859C59.7993 9.56901 59.6743 9.99609 59.4243 10.3398C59.1743 10.6836 58.828 10.9414 58.3853 11.1133C57.9451 11.2878 57.4386 11.375 56.8657 11.375ZM56.9009 7.66406C57.1691 7.66406 57.3957 7.59766 57.5806 7.46484C57.7681 7.32943 57.9113 7.13672 58.0103 6.88672C58.1118 6.63411 58.1626 6.33203 58.1626 5.98047C58.1626 5.62891 58.1131 5.32422 58.0142 5.06641C57.9152 4.80599 57.772 4.60417 57.5845 4.46094C57.397 4.31771 57.1691 4.24609 56.9009 4.24609C56.6274 4.24609 56.397 4.32031 56.2095 4.46875C56.022 4.61458 55.88 4.81771 55.7837 5.07812C55.6873 5.33854 55.6392 5.63932 55.6392 5.98047C55.6392 6.32682 55.6873 6.6263 55.7837 6.87891C55.8826 7.12891 56.0246 7.32292 56.2095 7.46094C56.397 7.59635 56.6274 7.66406 56.9009 7.66406ZM66.5366 9H63.7007V1H66.5601C67.3647 1 68.0575 1.16016 68.6382 1.48047C69.2189 1.79818 69.6655 2.25521 69.978 2.85156C70.2931 3.44792 70.4507 4.16146 70.4507 4.99219C70.4507 5.82552 70.2931 6.54167 69.978 7.14062C69.6655 7.73958 69.2163 8.19922 68.6304 8.51953C68.047 8.83984 67.3491 9 66.5366 9ZM65.3921 7.55078H66.4663C66.9663 7.55078 67.3869 7.46224 67.728 7.28516C68.0718 7.10547 68.3296 6.82812 68.5015 6.45312C68.6759 6.07552 68.7632 5.58854 68.7632 4.99219C68.7632 4.40104 68.6759 3.91797 68.5015 3.54297C68.3296 3.16797 68.0731 2.89193 67.7319 2.71484C67.3908 2.53776 66.9702 2.44922 66.4702 2.44922H65.3921V7.55078ZM71.6724 9V3H73.3364V9H71.6724ZM72.5083 2.22656C72.2609 2.22656 72.0487 2.14453 71.8716 1.98047C71.6971 1.8138 71.6099 1.61458 71.6099 1.38281C71.6099 1.15365 71.6971 0.957031 71.8716 0.792969C72.0487 0.626302 72.2609 0.542968 72.5083 0.542968C72.7557 0.542968 72.9666 0.626302 73.1411 0.792969C73.3182 0.957031 73.4067 1.15365 73.4067 1.38281C73.4067 1.61458 73.3182 1.8138 73.1411 1.98047C72.9666 2.14453 72.7557 2.22656 72.5083 2.22656ZM77.3726 11.375C76.8335 11.375 76.3713 11.3008 75.9858 11.1523C75.603 11.0065 75.2983 10.8073 75.0718 10.5547C74.8452 10.3021 74.6981 10.0182 74.6304 9.70312L76.1694 9.49609C76.2163 9.61589 76.2905 9.72786 76.3921 9.83203C76.4937 9.9362 76.6278 10.0195 76.7944 10.082C76.9637 10.1471 77.1694 10.1797 77.4116 10.1797C77.7736 10.1797 78.0718 10.0911 78.3062 9.91406C78.5431 9.73958 78.6616 9.44661 78.6616 9.03516V7.9375H78.5913C78.5184 8.10417 78.409 8.26172 78.2632 8.41016C78.1174 8.55859 77.9299 8.67969 77.7007 8.77344C77.4715 8.86719 77.1981 8.91406 76.8804 8.91406C76.4299 8.91406 76.0197 8.8099 75.6499 8.60156C75.2827 8.39062 74.9897 8.06901 74.771 7.63672C74.5549 7.20182 74.4468 6.65234 74.4468 5.98828C74.4468 5.30859 74.5575 4.74089 74.7788 4.28516C75.0002 3.82943 75.2944 3.48828 75.6616 3.26172C76.0314 3.03516 76.4364 2.92188 76.8765 2.92188C77.2124 2.92188 77.4937 2.97917 77.7202 3.09375C77.9468 3.20573 78.1291 3.34635 78.2671 3.51562C78.4077 3.68229 78.5158 3.84635 78.5913 4.00781H78.6538V3H80.3062V9.05859C80.3062 9.56901 80.1812 9.99609 79.9312 10.3398C79.6812 10.6836 79.3348 10.9414 78.8921 11.1133C78.452 11.2878 77.9455 11.375 77.3726 11.375ZM77.4077 7.66406C77.6759 7.66406 77.9025 7.59766 78.0874 7.46484C78.2749 7.32943 78.4181 7.13672 78.5171 6.88672C78.6187 6.63411 78.6694 6.33203 78.6694 5.98047C78.6694 5.62891 78.62 5.32422 78.521 5.06641C78.422 4.80599 78.2788 4.60417 78.0913 4.46094C77.9038 4.31771 77.6759 4.24609 77.4077 4.24609C77.1343 4.24609 76.9038 4.32031 76.7163 4.46875C76.5288 4.61458 76.3869 4.81771 76.2905 5.07812C76.1942 5.33854 76.146 5.63932 76.146 5.98047C76.146 6.32682 76.1942 6.6263 76.2905 6.87891C76.3895 7.12891 76.5314 7.32292 76.7163 7.46094C76.9038 7.59635 77.1343 7.66406 77.4077 7.66406ZM81.6304 9V3H83.2944V9H81.6304ZM82.4663 2.22656C82.2189 2.22656 82.0067 2.14453 81.8296 1.98047C81.6551 1.8138 81.5679 1.61458 81.5679 1.38281C81.5679 1.15365 81.6551 0.957031 81.8296 0.792969C82.0067 0.626302 82.2189 0.542968 82.4663 0.542968C82.7137 0.542968 82.9246 0.626302 83.0991 0.792969C83.2762 0.957031 83.3647 1.15365 83.3647 1.38281C83.3647 1.61458 83.2762 1.8138 83.0991 1.98047C82.9246 2.14453 82.7137 2.22656 82.4663 2.22656ZM87.8188 3V4.25H84.2056V3H87.8188ZM85.0259 1.5625H86.6899V7.15625C86.6899 7.3099 86.7134 7.42969 86.7603 7.51562C86.8071 7.59896 86.8722 7.65755 86.9556 7.69141C87.0415 7.72526 87.1405 7.74219 87.2524 7.74219C87.3306 7.74219 87.4087 7.73568 87.4868 7.72266C87.5649 7.70703 87.6248 7.69531 87.6665 7.6875L87.9282 8.92578C87.8449 8.95182 87.7277 8.98177 87.5767 9.01563C87.4256 9.05208 87.242 9.07422 87.0259 9.08203C86.6248 9.09766 86.2733 9.04427 85.9712 8.92187C85.6717 8.79948 85.4386 8.60937 85.272 8.35156C85.1053 8.09375 85.0233 7.76823 85.0259 7.375V1.5625ZM90.6138 9.11328C90.231 9.11328 89.8898 9.04688 89.5903 8.91406C89.2909 8.77865 89.0539 8.57943 88.8794 8.31641C88.7075 8.05078 88.6216 7.72005 88.6216 7.32422C88.6216 6.99089 88.6828 6.71094 88.8052 6.48437C88.9276 6.25781 89.0942 6.07552 89.3052 5.9375C89.5161 5.79948 89.7557 5.69531 90.0239 5.625C90.2948 5.55469 90.5786 5.50521 90.8755 5.47656C91.2244 5.4401 91.5057 5.40625 91.7192 5.375C91.9328 5.34115 92.0877 5.29167 92.1841 5.22656C92.2804 5.16146 92.3286 5.0651 92.3286 4.9375V4.91406C92.3286 4.66667 92.2505 4.47526 92.0942 4.33984C91.9406 4.20443 91.7218 4.13672 91.438 4.13672C91.1385 4.13672 90.9002 4.20312 90.7231 4.33594C90.5461 4.46615 90.4289 4.63021 90.3716 4.82812L88.8325 4.70312C88.9106 4.33854 89.0643 4.02344 89.2935 3.75781C89.5226 3.48958 89.8182 3.28385 90.1802 3.14062C90.5448 2.99479 90.9666 2.92188 91.4458 2.92188C91.7791 2.92188 92.0981 2.96094 92.4028 3.03906C92.7101 3.11719 92.9823 3.23828 93.2192 3.40234C93.4588 3.56641 93.6476 3.77734 93.7856 4.03516C93.9237 4.29036 93.9927 4.59635 93.9927 4.95312V9H92.4146V8.16797H92.3677C92.2713 8.35547 92.1424 8.52083 91.981 8.66406C91.8195 8.80469 91.6255 8.91536 91.3989 8.99609C91.1724 9.07422 90.9106 9.11328 90.6138 9.11328ZM91.0903 7.96484C91.3351 7.96484 91.5513 7.91667 91.7388 7.82031C91.9263 7.72135 92.0734 7.58854 92.1802 7.42188C92.2869 7.25521 92.3403 7.06641 92.3403 6.85547V6.21875C92.2882 6.2526 92.2166 6.28385 92.1255 6.3125C92.0369 6.33854 91.9367 6.36328 91.8247 6.38672C91.7127 6.40755 91.6007 6.42708 91.4888 6.44531C91.3768 6.46094 91.2752 6.47526 91.1841 6.48828C90.9888 6.51693 90.8182 6.5625 90.6724 6.625C90.5265 6.6875 90.4132 6.77214 90.3325 6.87891C90.2518 6.98307 90.2114 7.11328 90.2114 7.26953C90.2114 7.49609 90.2935 7.66927 90.4575 7.78906C90.6242 7.90625 90.8351 7.96484 91.0903 7.96484ZM96.9478 1V9H95.2837V1H96.9478ZM100.858 9V1H104.014C104.621 1 105.138 1.11589 105.565 1.34766C105.992 1.57682 106.318 1.89583 106.542 2.30469C106.768 2.71094 106.881 3.17969 106.881 3.71094C106.881 4.24219 106.767 4.71094 106.538 5.11719C106.308 5.52344 105.976 5.83984 105.542 6.06641C105.109 6.29297 104.586 6.40625 103.971 6.40625H101.959V5.05078H103.698C104.023 5.05078 104.292 4.99479 104.502 4.88281C104.716 4.76823 104.875 4.61068 104.979 4.41016C105.086 4.20703 105.139 3.97396 105.139 3.71094C105.139 3.44531 105.086 3.21354 104.979 3.01562C104.875 2.8151 104.716 2.66016 104.502 2.55078C104.289 2.4388 104.018 2.38281 103.69 2.38281H102.549V9H100.858ZM110.563 9.11719C109.956 9.11719 109.431 8.98828 108.989 8.73047C108.549 8.47005 108.209 8.10807 107.969 7.64453C107.73 7.17839 107.61 6.63802 107.61 6.02344C107.61 5.40365 107.73 4.86198 107.969 4.39844C108.209 3.93229 108.549 3.57031 108.989 3.3125C109.431 3.05208 109.956 2.92188 110.563 2.92188C111.17 2.92188 111.693 3.05208 112.133 3.3125C112.576 3.57031 112.917 3.93229 113.157 4.39844C113.396 4.86198 113.516 5.40365 113.516 6.02344C113.516 6.63802 113.396 7.17839 113.157 7.64453C112.917 8.10807 112.576 8.47005 112.133 8.73047C111.693 8.98828 111.17 9.11719 110.563 9.11719ZM110.571 7.82812C110.847 7.82812 111.077 7.75 111.262 7.59375C111.447 7.4349 111.586 7.21875 111.68 6.94531C111.777 6.67187 111.825 6.36068 111.825 6.01172C111.825 5.66276 111.777 5.35156 111.68 5.07812C111.586 4.80469 111.447 4.58854 111.262 4.42969C111.077 4.27083 110.847 4.19141 110.571 4.19141C110.292 4.19141 110.058 4.27083 109.868 4.42969C109.68 4.58854 109.538 4.80469 109.442 5.07812C109.348 5.35156 109.301 5.66276 109.301 6.01172C109.301 6.36068 109.348 6.67187 109.442 6.94531C109.538 7.21875 109.68 7.4349 109.868 7.59375C110.058 7.75 110.292 7.82812 110.571 7.82812ZM117.79 3V4.25H114.176V3H117.79ZM114.997 1.5625H116.661V7.15625C116.661 7.3099 116.684 7.42969 116.731 7.51562C116.778 7.59896 116.843 7.65755 116.926 7.69141C117.012 7.72526 117.111 7.74219 117.223 7.74219C117.301 7.74219 117.379 7.73568 117.458 7.72266C117.536 7.70703 117.596 7.69531 117.637 7.6875L117.899 8.92578C117.816 8.95182 117.698 8.98177 117.547 9.01563C117.396 9.05208 117.213 9.07422 116.997 9.08203C116.596 9.09766 116.244 9.04427 115.942 8.92187C115.642 8.79948 115.409 8.60937 115.243 8.35156C115.076 8.09375 114.994 7.76823 114.997 7.375V1.5625ZM121.543 9.11719C120.926 9.11719 120.395 8.99219 119.95 8.74219C119.507 8.48958 119.166 8.13281 118.926 7.67187C118.687 7.20833 118.567 6.66016 118.567 6.02734C118.567 5.41016 118.687 4.86849 118.926 4.40234C119.166 3.9362 119.503 3.57292 119.938 3.3125C120.375 3.05208 120.889 2.92188 121.477 2.92188C121.873 2.92188 122.241 2.98568 122.583 3.11328C122.926 3.23828 123.226 3.42708 123.481 3.67969C123.739 3.93229 123.939 4.25 124.083 4.63281C124.226 5.01302 124.297 5.45833 124.297 5.96875V6.42578H119.231V5.39453H122.731C122.731 5.15495 122.679 4.94271 122.575 4.75781C122.471 4.57292 122.326 4.42839 122.141 4.32422C121.959 4.21745 121.747 4.16406 121.504 4.16406C121.252 4.16406 121.028 4.22266 120.833 4.33984C120.64 4.45443 120.489 4.60937 120.379 4.80469C120.27 4.9974 120.214 5.21224 120.211 5.44922V6.42969C120.211 6.72656 120.266 6.98307 120.375 7.19922C120.487 7.41536 120.645 7.58203 120.848 7.69922C121.051 7.81641 121.292 7.875 121.571 7.875C121.756 7.875 121.925 7.84896 122.079 7.79688C122.232 7.74479 122.364 7.66667 122.473 7.5625C122.583 7.45833 122.666 7.33073 122.723 7.17969L124.262 7.28125C124.184 7.65104 124.024 7.97396 123.782 8.25C123.542 8.52344 123.232 8.73698 122.852 8.89063C122.474 9.04167 122.038 9.11719 121.543 9.11719ZM127.047 5.53125V9H125.383V3H126.969V4.05859H127.04C127.172 3.70964 127.395 3.43359 127.708 3.23047C128.02 3.02474 128.399 2.92188 128.844 2.92188C129.261 2.92188 129.624 3.01302 129.934 3.19531C130.244 3.3776 130.485 3.63802 130.657 3.97656C130.829 4.3125 130.915 4.71354 130.915 5.17969V9H129.25V5.47656C129.253 5.10937 129.159 4.82292 128.969 4.61719C128.779 4.40885 128.517 4.30469 128.184 4.30469C127.96 4.30469 127.762 4.35286 127.59 4.44922C127.421 4.54557 127.288 4.6862 127.192 4.87109C127.098 5.05339 127.05 5.27344 127.047 5.53125ZM135.417 3V4.25H131.804V3H135.417ZM132.625 1.5625H134.289V7.15625C134.289 7.3099 134.312 7.42969 134.359 7.51562C134.406 7.59896 134.471 7.65755 134.554 7.69141C134.64 7.72526 134.739 7.74219 134.851 7.74219C134.929 7.74219 135.007 7.73568 135.085 7.72266C135.164 7.70703 135.223 7.69531 135.265 7.6875L135.527 8.92578C135.444 8.95182 135.326 8.98177 135.175 9.01563C135.024 9.05208 134.841 9.07422 134.625 9.08203C134.223 9.09766 133.872 9.04427 133.57 8.92187C133.27 8.79948 133.037 8.60937 132.871 8.35156C132.704 8.09375 132.622 7.76823 132.625 7.375V1.5625ZM136.501 9V3H138.166V9H136.501ZM137.337 2.22656C137.09 2.22656 136.878 2.14453 136.701 1.98047C136.526 1.8138 136.439 1.61458 136.439 1.38281C136.439 1.15365 136.526 0.957031 136.701 0.792969C136.878 0.626302 137.09 0.542968 137.337 0.542968C137.585 0.542968 137.796 0.626302 137.97 0.792969C138.147 0.957031 138.236 1.15365 138.236 1.38281C138.236 1.61458 138.147 1.8138 137.97 1.98047C137.796 2.14453 137.585 2.22656 137.337 2.22656ZM141.209 9.11328C140.827 9.11328 140.486 9.04688 140.186 8.91406C139.887 8.77865 139.65 8.57943 139.475 8.31641C139.303 8.05078 139.217 7.72005 139.217 7.32422C139.217 6.99089 139.278 6.71094 139.401 6.48437C139.523 6.25781 139.69 6.07552 139.901 5.9375C140.112 5.79948 140.351 5.69531 140.62 5.625C140.89 5.55469 141.174 5.50521 141.471 5.47656C141.82 5.4401 142.101 5.40625 142.315 5.375C142.528 5.34115 142.683 5.29167 142.78 5.22656C142.876 5.16146 142.924 5.0651 142.924 4.9375V4.91406C142.924 4.66667 142.846 4.47526 142.69 4.33984C142.536 4.20443 142.318 4.13672 142.034 4.13672C141.734 4.13672 141.496 4.20312 141.319 4.33594C141.142 4.46615 141.025 4.63021 140.967 4.82812L139.428 4.70312C139.506 4.33854 139.66 4.02344 139.889 3.75781C140.118 3.48958 140.414 3.28385 140.776 3.14062C141.14 2.99479 141.562 2.92188 142.042 2.92188C142.375 2.92188 142.694 2.96094 142.999 3.03906C143.306 3.11719 143.578 3.23828 143.815 3.40234C144.055 3.56641 144.243 3.77734 144.381 4.03516C144.519 4.29036 144.588 4.59635 144.588 4.95312V9H143.01V8.16797H142.963C142.867 8.35547 142.738 8.52083 142.577 8.66406C142.415 8.80469 142.221 8.91536 141.995 8.99609C141.768 9.07422 141.506 9.11328 141.209 9.11328ZM141.686 7.96484C141.931 7.96484 142.147 7.91667 142.334 7.82031C142.522 7.72135 142.669 7.58854 142.776 7.42188C142.883 7.25521 142.936 7.06641 142.936 6.85547V6.21875C142.884 6.2526 142.812 6.28385 142.721 6.3125C142.633 6.33854 142.532 6.36328 142.42 6.38672C142.308 6.40755 142.196 6.42708 142.084 6.44531C141.972 6.46094 141.871 6.47526 141.78 6.48828C141.584 6.51693 141.414 6.5625 141.268 6.625C141.122 6.6875 141.009 6.77214 140.928 6.87891C140.847 6.98307 140.807 7.11328 140.807 7.26953C140.807 7.49609 140.889 7.66927 141.053 7.78906C141.22 7.90625 141.431 7.96484 141.686 7.96484ZM147.543 1V9H145.879V1H147.543ZM150.685 7.90625L150.642 8.33594C150.608 8.67969 150.543 9.02214 150.447 9.36328C150.353 9.70703 150.254 10.0182 150.15 10.2969C150.048 10.5755 149.966 10.7943 149.904 10.9531H148.826C148.865 10.7995 148.918 10.5846 148.986 10.3086C149.054 10.0352 149.117 9.72786 149.177 9.38672C149.237 9.04557 149.275 8.69792 149.291 8.34375L149.31 7.90625H150.685ZM154.408 9V1H157.564C158.171 1 158.688 1.11589 159.115 1.34766C159.542 1.57682 159.867 1.89583 160.091 2.30469C160.318 2.71094 160.431 3.17969 160.431 3.71094C160.431 4.24219 160.317 4.71094 160.087 5.11719C159.858 5.52344 159.526 5.83984 159.091 6.06641C158.659 6.29297 158.136 6.40625 157.521 6.40625H155.509V5.05078H157.248C157.573 5.05078 157.841 4.99479 158.052 4.88281C158.266 4.76823 158.425 4.61068 158.529 4.41016C158.636 4.20703 158.689 3.97396 158.689 3.71094C158.689 3.44531 158.636 3.21354 158.529 3.01562C158.425 2.8151 158.266 2.66016 158.052 2.55078C157.839 2.4388 157.568 2.38281 157.24 2.38281H156.099V9H154.408ZM164.113 9.11719C163.506 9.11719 162.981 8.98828 162.539 8.73047C162.098 8.47005 161.759 8.10807 161.519 7.64453C161.279 7.17839 161.16 6.63802 161.16 6.02344C161.16 5.40365 161.279 4.86198 161.519 4.39844C161.759 3.93229 162.098 3.57031 162.539 3.3125C162.981 3.05208 163.506 2.92188 164.113 2.92188C164.72 2.92188 165.243 3.05208 165.683 3.3125C166.126 3.57031 166.467 3.93229 166.707 4.39844C166.946 4.86198 167.066 5.40365 167.066 6.02344C167.066 6.63802 166.946 7.17839 166.707 7.64453C166.467 8.10807 166.126 8.47005 165.683 8.73047C165.243 8.98828 164.72 9.11719 164.113 9.11719ZM164.121 7.82812C164.397 7.82812 164.627 7.75 164.812 7.59375C164.997 7.4349 165.136 7.21875 165.23 6.94531C165.326 6.67187 165.375 6.36068 165.375 6.01172C165.375 5.66276 165.326 5.35156 165.23 5.07812C165.136 4.80469 164.997 4.58854 164.812 4.42969C164.627 4.27083 164.397 4.19141 164.121 4.19141C163.842 4.19141 163.608 4.27083 163.417 4.42969C163.23 4.58854 163.088 4.80469 162.992 5.07812C162.898 5.35156 162.851 5.66276 162.851 6.01172C162.851 6.36068 162.898 6.67187 162.992 6.94531C163.088 7.21875 163.23 7.4349 163.417 7.59375C163.608 7.75 163.842 7.82812 164.121 7.82812ZM169.181 9L167.548 3H169.232L170.162 7.03125H170.216L171.185 3H172.837L173.822 7.00781H173.873L174.787 3H176.466L174.837 9H173.076L172.044 5.22656H171.97L170.939 9H169.181ZM179.938 9.11719C179.321 9.11719 178.79 8.99219 178.344 8.74219C177.902 8.48958 177.56 8.13281 177.321 7.67187C177.081 7.20833 176.961 6.66016 176.961 6.02734C176.961 5.41016 177.081 4.86849 177.321 4.40234C177.56 3.9362 177.898 3.57292 178.333 3.3125C178.77 3.05208 179.283 2.92188 179.872 2.92188C180.267 2.92188 180.636 2.98568 180.977 3.11328C181.321 3.23828 181.62 3.42708 181.875 3.67969C182.133 3.93229 182.334 4.25 182.477 4.63281C182.62 5.01302 182.692 5.45833 182.692 5.96875V6.42578H177.625V5.39453H181.125C181.125 5.15495 181.073 4.94271 180.969 4.75781C180.865 4.57292 180.721 4.42839 180.536 4.32422C180.353 4.21745 180.141 4.16406 179.899 4.16406C179.646 4.16406 179.422 4.22266 179.227 4.33984C179.034 4.45443 178.883 4.60937 178.774 4.80469C178.665 4.9974 178.609 5.21224 178.606 5.44922V6.42969C178.606 6.72656 178.661 6.98307 178.77 7.19922C178.882 7.41536 179.04 7.58203 179.243 7.69922C179.446 7.81641 179.687 7.875 179.965 7.875C180.15 7.875 180.319 7.84896 180.473 7.79688C180.627 7.74479 180.758 7.66667 180.868 7.5625C180.977 7.45833 181.06 7.33073 181.118 7.17969L182.657 7.28125C182.579 7.65104 182.418 7.97396 182.176 8.25C181.937 8.52344 181.627 8.73698 181.247 8.89063C180.869 9.04167 180.433 9.11719 179.938 9.11719ZM183.778 9V3H185.391V4.04687H185.454C185.563 3.67448 185.747 3.39323 186.004 3.20313C186.262 3.01042 186.559 2.91406 186.895 2.91406C186.978 2.91406 187.068 2.91927 187.165 2.92969C187.261 2.9401 187.346 2.95443 187.418 2.97266V4.44922C187.34 4.42578 187.232 4.40495 187.094 4.38672C186.956 4.36849 186.83 4.35938 186.715 4.35938C186.471 4.35938 186.252 4.41276 186.059 4.51953C185.869 4.6237 185.718 4.76953 185.606 4.95703C185.497 5.14453 185.442 5.36068 185.442 5.60547V9H183.778ZM188.279 9V3H189.943V9H188.279ZM189.115 2.22656C188.867 2.22656 188.655 2.14453 188.478 1.98047C188.304 1.8138 188.216 1.61458 188.216 1.38281C188.216 1.15365 188.304 0.957031 188.478 0.792969C188.655 0.626302 188.867 0.542968 189.115 0.542968C189.362 0.542968 189.573 0.626302 189.748 0.792969C189.925 0.957031 190.013 1.15365 190.013 1.38281C190.013 1.61458 189.925 1.8138 189.748 1.98047C189.573 2.14453 189.362 2.22656 189.115 2.22656ZM192.94 5.53125V9H191.276V3H192.862V4.05859H192.932C193.065 3.70964 193.288 3.43359 193.6 3.23047C193.913 3.02474 194.292 2.92188 194.737 2.92188C195.153 2.92188 195.517 3.01302 195.827 3.19531C196.137 3.3776 196.377 3.63802 196.549 3.97656C196.721 4.3125 196.807 4.71354 196.807 5.17969V9H195.143V5.47656C195.146 5.10937 195.052 4.82292 194.862 4.61719C194.672 4.40885 194.41 4.30469 194.077 4.30469C193.853 4.30469 193.655 4.35286 193.483 4.44922C193.314 4.54557 193.181 4.6862 193.084 4.87109C192.991 5.05339 192.943 5.27344 192.94 5.53125ZM200.822 11.375C200.283 11.375 199.82 11.3008 199.435 11.1523C199.052 11.0065 198.748 10.8073 198.521 10.5547C198.294 10.3021 198.147 10.0182 198.08 9.70312L199.619 9.49609C199.666 9.61589 199.74 9.72786 199.841 9.83203C199.943 9.9362 200.077 10.0195 200.244 10.082C200.413 10.1471 200.619 10.1797 200.861 10.1797C201.223 10.1797 201.521 10.0911 201.755 9.91406C201.992 9.73958 202.111 9.44661 202.111 9.03516V7.9375H202.041C201.968 8.10417 201.858 8.26172 201.712 8.41016C201.567 8.55859 201.379 8.67969 201.15 8.77344C200.921 8.86719 200.647 8.91406 200.33 8.91406C199.879 8.91406 199.469 8.8099 199.099 8.60156C198.732 8.39062 198.439 8.06901 198.22 7.63672C198.004 7.20182 197.896 6.65234 197.896 5.98828C197.896 5.30859 198.007 4.74089 198.228 4.28516C198.449 3.82943 198.744 3.48828 199.111 3.26172C199.481 3.03516 199.886 2.92188 200.326 2.92188C200.662 2.92188 200.943 2.97917 201.169 3.09375C201.396 3.20573 201.578 3.34635 201.716 3.51562C201.857 3.68229 201.965 3.84635 202.041 4.00781H202.103V3H203.755V9.05859C203.755 9.56901 203.63 9.99609 203.38 10.3398C203.13 10.6836 202.784 10.9414 202.341 11.1133C201.901 11.2878 201.395 11.375 200.822 11.375ZM200.857 7.66406C201.125 7.66406 201.352 7.59766 201.537 7.46484C201.724 7.32943 201.867 7.13672 201.966 6.88672C202.068 6.63411 202.119 6.33203 202.119 5.98047C202.119 5.62891 202.069 5.32422 201.97 5.06641C201.871 4.80599 201.728 4.60417 201.541 4.46094C201.353 4.31771 201.125 4.24609 200.857 4.24609C200.583 4.24609 200.353 4.32031 200.166 4.46875C199.978 4.61458 199.836 4.81771 199.74 5.07812C199.643 5.33854 199.595 5.63932 199.595 5.98047C199.595 6.32682 199.643 6.6263 199.74 6.87891C199.839 7.12891 199.981 7.32292 200.166 7.46094C200.353 7.59635 200.583 7.66406 200.857 7.66406ZM207.188 1H209.083L210.907 4.44531H210.985L212.809 1H214.704L211.786 6.17187V9H210.106V6.17187L207.188 1ZM217.05 9.11719C216.444 9.11719 215.919 8.98828 215.476 8.73047C215.036 8.47005 214.696 8.10807 214.457 7.64453C214.217 7.17839 214.097 6.63802 214.097 6.02344C214.097 5.40365 214.217 4.86198 214.457 4.39844C214.696 3.93229 215.036 3.57031 215.476 3.3125C215.919 3.05208 216.444 2.92188 217.05 2.92188C217.657 2.92188 218.181 3.05208 218.621 3.3125C219.063 3.57031 219.404 3.93229 219.644 4.39844C219.884 4.86198 220.003 5.40365 220.003 6.02344C220.003 6.63802 219.884 7.17839 219.644 7.64453C219.404 8.10807 219.063 8.47005 218.621 8.73047C218.181 8.98828 217.657 9.11719 217.05 9.11719ZM217.058 7.82812C217.334 7.82812 217.565 7.75 217.75 7.59375C217.934 7.4349 218.074 7.21875 218.167 6.94531C218.264 6.67187 218.312 6.36068 218.312 6.01172C218.312 5.66276 218.264 5.35156 218.167 5.07812C218.074 4.80469 217.934 4.58854 217.75 4.42969C217.565 4.27083 217.334 4.19141 217.058 4.19141C216.779 4.19141 216.545 4.27083 216.355 4.42969C216.167 4.58854 216.026 4.80469 215.929 5.07812C215.835 5.35156 215.789 5.66276 215.789 6.01172C215.789 6.36068 215.835 6.67187 215.929 6.94531C216.026 7.21875 216.167 7.4349 216.355 7.59375C216.545 7.75 216.779 7.82812 217.058 7.82812ZM224.933 6.44531V3H226.597V9H225V7.91016H224.937C224.802 8.26172 224.576 8.54427 224.261 8.75781C223.949 8.97135 223.567 9.07813 223.117 9.07813C222.716 9.07813 222.363 8.98698 222.058 8.80469C221.753 8.6224 221.515 8.36328 221.343 8.02734C221.174 7.69141 221.088 7.28906 221.085 6.82031V3H222.75V6.52344C222.752 6.8776 222.847 7.15755 223.035 7.36328C223.222 7.56901 223.473 7.67187 223.789 7.67187C223.989 7.67187 224.177 7.6263 224.351 7.53516C224.526 7.44141 224.666 7.30339 224.773 7.12109C224.882 6.9388 224.936 6.71354 224.933 6.44531ZM227.928 9V3H229.542V4.04687H229.604C229.713 3.67448 229.897 3.39323 230.155 3.20313C230.413 3.01042 230.709 2.91406 231.045 2.91406C231.129 2.91406 231.219 2.91927 231.315 2.92969C231.411 2.9401 231.496 2.95443 231.569 2.97266V4.44922C231.491 4.42578 231.383 4.40495 231.245 4.38672C231.107 4.36849 230.98 4.35938 230.866 4.35938C230.621 4.35938 230.402 4.41276 230.209 4.51953C230.019 4.6237 229.868 4.76953 229.756 4.95703C229.647 5.14453 229.592 5.36068 229.592 5.60547V9H227.928ZM239.346 3.30078C239.315 2.98568 239.181 2.74089 238.944 2.56641C238.707 2.39193 238.385 2.30469 237.979 2.30469C237.703 2.30469 237.47 2.34375 237.28 2.42187C237.09 2.4974 236.944 2.60286 236.842 2.73828C236.743 2.8737 236.694 3.02734 236.694 3.19922C236.689 3.34245 236.719 3.46745 236.784 3.57422C236.851 3.68099 236.944 3.77344 237.061 3.85156C237.178 3.92708 237.314 3.99349 237.467 4.05078C237.621 4.10547 237.785 4.15234 237.959 4.19141L238.678 4.36328C239.027 4.44141 239.347 4.54557 239.639 4.67578C239.931 4.80599 240.183 4.96615 240.397 5.15625C240.611 5.34635 240.776 5.57031 240.893 5.82812C241.013 6.08594 241.074 6.38151 241.077 6.71484C241.074 7.20443 240.949 7.62891 240.702 7.98828C240.457 8.34505 240.103 8.6224 239.639 8.82031C239.178 9.01562 238.622 9.11328 237.971 9.11328C237.325 9.11328 236.763 9.01432 236.284 8.81641C235.807 8.61849 235.435 8.32552 235.167 7.9375C234.901 7.54687 234.762 7.0638 234.749 6.48828H236.385C236.403 6.75651 236.48 6.98047 236.616 7.16016C236.754 7.33724 236.937 7.47135 237.167 7.5625C237.398 7.65104 237.66 7.69531 237.952 7.69531C238.238 7.69531 238.487 7.65365 238.698 7.57031C238.911 7.48698 239.077 7.37109 239.194 7.22266C239.311 7.07422 239.37 6.90365 239.37 6.71094C239.37 6.53125 239.316 6.38021 239.209 6.25781C239.105 6.13542 238.952 6.03125 238.749 5.94531C238.548 5.85937 238.302 5.78125 238.01 5.71094L237.139 5.49219C236.465 5.32812 235.932 5.07161 235.542 4.72266C235.151 4.3737 234.957 3.90365 234.959 3.3125C234.957 2.82812 235.086 2.40495 235.346 2.04297C235.609 1.68099 235.97 1.39844 236.428 1.19531C236.887 0.992187 237.407 0.890625 237.991 0.890625C238.584 0.890625 239.103 0.992187 239.545 1.19531C239.991 1.39844 240.337 1.68099 240.584 2.04297C240.832 2.40495 240.959 2.82422 240.967 3.30078H239.346ZM246.031 6.44531V3H247.695V9H246.097V7.91016H246.035C245.899 8.26172 245.674 8.54427 245.359 8.75781C245.046 8.97135 244.665 9.07813 244.214 9.07813C243.813 9.07813 243.46 8.98698 243.156 8.80469C242.851 8.6224 242.613 8.36328 242.441 8.02734C242.272 7.69141 242.186 7.28906 242.183 6.82031V3H243.847V6.52344C243.85 6.8776 243.945 7.15755 244.132 7.36328C244.32 7.56901 244.571 7.67187 244.886 7.67187C245.087 7.67187 245.274 7.6263 245.449 7.53516C245.623 7.44141 245.764 7.30339 245.871 7.12109C245.98 6.9388 246.033 6.71354 246.031 6.44531ZM251.737 9.11719C251.122 9.11719 250.594 8.98698 250.151 8.72656C249.711 8.46354 249.372 8.09896 249.135 7.63281C248.901 7.16667 248.784 6.63021 248.784 6.02344C248.784 5.40885 248.902 4.86979 249.139 4.40625C249.379 3.9401 249.719 3.57682 250.159 3.31641C250.599 3.05339 251.122 2.92188 251.729 2.92188C252.252 2.92188 252.711 3.01693 253.104 3.20703C253.497 3.39714 253.808 3.66406 254.038 4.00781C254.267 4.35156 254.393 4.75521 254.417 5.21875H252.846C252.802 4.91927 252.685 4.67839 252.495 4.49609C252.307 4.3112 252.061 4.21875 251.756 4.21875C251.499 4.21875 251.273 4.28906 251.081 4.42969C250.89 4.56771 250.742 4.76953 250.635 5.03516C250.528 5.30078 250.475 5.6224 250.475 6C250.475 6.38281 250.527 6.70833 250.631 6.97656C250.738 7.24479 250.888 7.44922 251.081 7.58984C251.273 7.73047 251.499 7.80078 251.756 7.80078C251.946 7.80078 252.117 7.76172 252.268 7.68359C252.422 7.60547 252.548 7.49219 252.647 7.34375C252.749 7.19271 252.815 7.01172 252.846 6.80078H254.417C254.39 7.25911 254.265 7.66276 254.042 8.01172C253.82 8.35807 253.514 8.62891 253.124 8.82422C252.733 9.01953 252.271 9.11719 251.737 9.11719ZM258.193 9.11719C257.578 9.11719 257.05 8.98698 256.607 8.72656C256.167 8.46354 255.828 8.09896 255.591 7.63281C255.357 7.16667 255.24 6.63021 255.24 6.02344C255.24 5.40885 255.358 4.86979 255.595 4.40625C255.835 3.9401 256.175 3.57682 256.615 3.31641C257.055 3.05339 257.578 2.92188 258.185 2.92188C258.708 2.92188 259.167 3.01693 259.56 3.20703C259.953 3.39714 260.264 3.66406 260.494 4.00781C260.723 4.35156 260.849 4.75521 260.873 5.21875H259.302C259.258 4.91927 259.141 4.67839 258.951 4.49609C258.763 4.3112 258.517 4.21875 258.212 4.21875C257.955 4.21875 257.729 4.28906 257.537 4.42969C257.347 4.56771 257.198 4.76953 257.091 5.03516C256.985 5.30078 256.931 5.6224 256.931 6C256.931 6.38281 256.983 6.70833 257.087 6.97656C257.194 7.24479 257.344 7.44922 257.537 7.58984C257.729 7.73047 257.955 7.80078 258.212 7.80078C258.403 7.80078 258.573 7.76172 258.724 7.68359C258.878 7.60547 259.004 7.49219 259.103 7.34375C259.205 7.19271 259.271 7.01172 259.302 6.80078H260.873C260.847 7.25911 260.722 7.66276 260.498 8.01172C260.276 8.35807 259.97 8.62891 259.58 8.82422C259.189 9.01953 258.727 9.11719 258.193 9.11719ZM264.672 9.11719C264.055 9.11719 263.524 8.99219 263.079 8.74219C262.636 8.48958 262.295 8.13281 262.055 7.67187C261.816 7.20833 261.696 6.66016 261.696 6.02734C261.696 5.41016 261.816 4.86849 262.055 4.40234C262.295 3.9362 262.632 3.57292 263.067 3.3125C263.504 3.05208 264.017 2.92188 264.606 2.92188C265.002 2.92188 265.37 2.98568 265.711 3.11328C266.055 3.23828 266.355 3.42708 266.61 3.67969C266.868 3.93229 267.068 4.25 267.211 4.63281C267.355 5.01302 267.426 5.45833 267.426 5.96875V6.42578H262.36V5.39453H265.86C265.86 5.15495 265.808 4.94271 265.704 4.75781C265.599 4.57292 265.455 4.42839 265.27 4.32422C265.088 4.21745 264.875 4.16406 264.633 4.16406C264.381 4.16406 264.157 4.22266 263.961 4.33984C263.769 4.45443 263.618 4.60937 263.508 4.80469C263.399 4.9974 263.343 5.21224 263.34 5.44922V6.42969C263.34 6.72656 263.395 6.98307 263.504 7.19922C263.616 7.41536 263.774 7.58203 263.977 7.69922C264.18 7.81641 264.421 7.875 264.7 7.875C264.885 7.875 265.054 7.84896 265.208 7.79688C265.361 7.74479 265.493 7.66667 265.602 7.5625C265.711 7.45833 265.795 7.33073 265.852 7.17969L267.391 7.28125C267.313 7.65104 267.153 7.97396 266.911 8.25C266.671 8.52344 266.361 8.73698 265.981 8.89063C265.603 9.04167 265.167 9.11719 264.672 9.11719ZM273.504 4.71094L271.981 4.80469C271.955 4.67448 271.899 4.55729 271.813 4.45312C271.727 4.34635 271.614 4.26172 271.473 4.19922C271.335 4.13411 271.17 4.10156 270.977 4.10156C270.719 4.10156 270.502 4.15625 270.325 4.26562C270.148 4.3724 270.059 4.51562 270.059 4.69531C270.059 4.83854 270.116 4.95964 270.231 5.05859C270.346 5.15755 270.542 5.23698 270.821 5.29687L271.907 5.51562C272.49 5.63542 272.925 5.82812 273.211 6.09375C273.498 6.35937 273.641 6.70833 273.641 7.14062C273.641 7.53385 273.525 7.87891 273.293 8.17578C273.064 8.47266 272.749 8.70443 272.348 8.87109C271.95 9.03516 271.49 9.11719 270.969 9.11719C270.175 9.11719 269.542 8.95182 269.071 8.62109C268.602 8.28776 268.327 7.83464 268.247 7.26172L269.883 7.17578C269.933 7.41797 270.053 7.60286 270.243 7.73047C270.433 7.85547 270.676 7.91797 270.973 7.91797C271.265 7.91797 271.499 7.86198 271.676 7.75C271.856 7.63542 271.947 7.48828 271.95 7.30859C271.947 7.15755 271.883 7.03385 271.758 6.9375C271.633 6.83854 271.441 6.76302 271.18 6.71094L270.141 6.50391C269.555 6.38672 269.119 6.18359 268.833 5.89453C268.549 5.60547 268.407 5.23698 268.407 4.78906C268.407 4.40365 268.511 4.07161 268.719 3.79297C268.93 3.51432 269.226 3.29948 269.606 3.14844C269.989 2.9974 270.437 2.92188 270.95 2.92188C271.708 2.92188 272.304 3.08203 272.739 3.40234C273.176 3.72266 273.431 4.15885 273.504 4.71094ZM279.681 4.71094L278.158 4.80469C278.132 4.67448 278.076 4.55729 277.99 4.45312C277.904 4.34635 277.791 4.26172 277.65 4.19922C277.512 4.13411 277.347 4.10156 277.154 4.10156C276.896 4.10156 276.679 4.15625 276.501 4.26562C276.324 4.3724 276.236 4.51562 276.236 4.69531C276.236 4.83854 276.293 4.95964 276.408 5.05859C276.522 5.15755 276.719 5.23698 276.998 5.29687L278.083 5.51562C278.667 5.63542 279.102 5.82812 279.388 6.09375C279.675 6.35937 279.818 6.70833 279.818 7.14062C279.818 7.53385 279.702 7.87891 279.47 8.17578C279.241 8.47266 278.926 8.70443 278.525 8.87109C278.126 9.03516 277.667 9.11719 277.146 9.11719C276.352 9.11719 275.719 8.95182 275.248 8.62109C274.779 8.28776 274.504 7.83464 274.423 7.26172L276.06 7.17578C276.11 7.41797 276.229 7.60286 276.419 7.73047C276.61 7.85547 276.853 7.91797 277.15 7.91797C277.442 7.91797 277.676 7.86198 277.853 7.75C278.033 7.63542 278.124 7.48828 278.126 7.30859C278.124 7.15755 278.06 7.03385 277.935 6.9375C277.81 6.83854 277.617 6.76302 277.357 6.71094L276.318 6.50391C275.732 6.38672 275.296 6.18359 275.009 5.89453C274.725 5.60547 274.583 5.23698 274.583 4.78906C274.583 4.40365 274.688 4.07161 274.896 3.79297C275.107 3.51432 275.403 3.29948 275.783 3.14844C276.166 2.9974 276.613 2.92188 277.126 2.92188C277.884 2.92188 278.481 3.08203 278.916 3.40234C279.353 3.72266 279.608 4.15885 279.681 4.71094Z" fill="url(#paint0_linear_202_2)"/>
<defs>
<linearGradient id="paint0_linear_202_2" x1="-40" y1="-7.4999" x2="317.5" y2="17.5" gradientUnits="userSpaceOnUse">
<stop stop-color="#0054D6"/>
<stop offset="1" stop-color="#BA1A1A"/>
</linearGradient>
</defs>
</svg>
